<?xml version="1.0" encoding="utf-8"?>
<!-- Generator: Adobe Illustrator 26.0.1, SVG Export Plug-In . SVG Version: 6.00 Build 0)  -->
<svg version="1.1" id="Слой_1" xmlns="http://www.w3.org/2000/svg" xmlns:xlink="http://www.w3.org/1999/xlink" x="0px" y="0px"
	 viewBox="0 0 1038.6 1000" style="enable-background:new 0 0 1038.6 1000;" xml:space="preserve">
<style type="text/css">
	.st0{fill:#5181B8;}
</style>
<g>
	<path class="st0" d="M1008.8,555c-15.7-54.4-45.4-103.5-86-142c-12.3-11.7-21.3-18.7-46.6-36.8c0.6-1.3,1.3-2.8,1.9-4.2
		C894.5,336,901.3,296,898,256.2c-3.3-39.7-16.8-78.5-39-112.1c-11.1-16.6-36.8-44.1-52.9-56.5c-27.7-21.1-64.5-37.7-98.4-44.2
		c-16.9-3.3-53.1-5.5-64.6-3.9C602.5,45,584.7,50,556.5,63.9l-0.1,0.1c-9.8,5-25.6,14.5-35.4,21.9c-14,10.8-153.4,149.9-235.3,231.9
		C90.9,512.9,65.1,539.5,55.5,554.9c-21.6,34.2-34.2,71.2-37.4,109.9c-3.2,38.7,3.2,76.9,19.1,113.6C57.8,826.6,100,871.3,147.3,895
		c66,33.3,147.9,33.2,213.6-0.2c25.5-13.1,40.3-24.4,68.9-52.2l14.7-14.2l4.3,5.9c17.4,23.2,51.9,56.2,75.3,71.9
		c41.2,27.5,86.2,44.9,133.9,51.8c14.9,2.1,30,3.2,44.9,3.2c32.8,0,65.6-5.2,97.6-15.4c103.1-32.8,184-119,211.1-224.8
		C1025.4,666.7,1024.4,609.3,1008.8,555z M820.1,343c-11.6,27.1-19.8,36.4-125.3,141.9l-93.2,93L480.5,456.5L359.2,335.4l89.2-89.3
		c60-60.2,104.5-102.9,111.4-107.9l0.1-0.1c20.6-15.5,43.2-25.8,69.2-31.3c16.7-3.5,62-1.9,78.2,2.9c48.5,13.9,88.6,47.7,110,92.6
		C838.3,246.4,839.4,297.7,820.1,343z M598,674.8h323l9.1-9.1c9.7-9.7,11.9-23.8,5.7-37.5l-0.4-0.8c-5.4-11.9-13.7-14.3-31.4-15.5
		c-18.1-1.2-52.4-1.2-120.5-1.2H662.2l82-82.7c49.7-50,83.9-84.2,96.8-97c0.9,0.6,1.9,1.2,2.9,1.9c56.2,36.9,96.9,99.3,108.9,167
		c4.1,23.3,4.2,63.2,0.2,85.4c-14.7,81.8-65.4,149.2-138.9,185.1c-57.3,27.9-120.7,33.3-183.3,15.5c-21.7-6.1-60.3-25.5-79.5-39.9
		c-18.8-14.3-42.9-39.2-56-58l-4.2-6.1L598,674.8z M555.6,623.2l-84.3,85.5c-52,52.8-98.8,99.1-105.7,105.2
		c-36.8,31.7-85.7,46.1-134.3,39.7c-48.6-6.4-92.1-33.1-119.4-73.2c-20-29.4-29.3-60.1-29.3-96.6c0-36.4,9.2-66.5,30-97.7
		c2.8-4.1,34.5-38.1,107.8-111.7l93.2-93.3l121.1,121.1L555.6,623.2z"/>
	<path class="st0" d="M295.7,448.1c-4.1,0-10.3,0.5-14,1.9l-0.2,0.1c-2.3,0.9-5.7,2.3-72.4,64.1c-11,10.2-66.1,61.4-73.8,70.5
		c-14,16.4-28.7,45.6-32.7,65.1c-4,18.9-4,49.5,0,68.2c4.1,18.6,16,43.6,29,61c8.4,11.1,20,23.9,35.3,23.9c5.7,0,11.5-1.8,17.2-5.3
		c12.5-7.4,18.7-25.2,13.3-38c-2.7-6.2-13.8-20.3-14.3-20.9c-24.1-30.4-25.6-73.5-3.8-104.9c1.2-1.8,10.6-13.4,72.4-70.5
		c0.7-0.6,66.4-60.9,70.4-67.1l0.3-0.5c5.8-10.1,5.6-22.6-0.4-32.8C316.3,453.4,306.5,447.8,295.7,448.1z"/>
</g>
</svg>
