<svg xmlns="http://www.w3.org/2000/svg"><symbol id="product_placeholder" viewBox="0 0 140 140"><path d="M61.2976 33.3991C59.0086 34.6551 57.079 36.5437 55.9566 37.6661C54.9011 38.7216 54.9011 40.433 55.9566 41.4885C57.0121 42.5441 58.7235 42.5441 59.779 41.4885C60.909 40.3585 62.3579 38.9833 63.898 38.1382C65.4215 37.3022 66.4572 37.2741 67.3029 37.7745C68.5876 38.5346 70.2453 38.1093 71.0054 36.8246C71.7655 35.5398 71.3402 33.8822 70.0555 33.1221C66.8469 31.2237 63.6031 32.1339 61.2976 33.3991Z" fill="#E0E1F3"/><path fill-rule="evenodd" clip-rule="evenodd" d="M80.3154 56.6655C88.2456 48.7353 88.2456 35.8779 80.3154 27.9477C72.3852 20.0174 59.5278 20.0174 51.5976 27.9477L27.9476 51.5977C20.0174 59.5279 20.0174 72.3853 27.9476 80.3155C35.8778 88.2458 48.7352 88.2458 56.6655 80.3155L80.3154 56.6655ZM41.6425 45.5477L31.7701 55.4201C25.9509 61.2392 25.9509 70.674 31.7701 76.4931C37.5892 82.3123 47.0239 82.3123 52.843 76.4931L62.7154 66.6207L41.6425 45.5477ZM45.021 42.1691L55.42 31.7701C61.2391 25.9509 70.6738 25.9509 76.493 31.7701C82.3121 37.5892 82.3121 47.024 76.493 52.8431L66.094 63.2421L45.021 42.1691Z" fill="#E0E1F3"/><path fill-rule="evenodd" clip-rule="evenodd" d="M62.3022 89.2686H62.2401V100.08H62.3022C63.2758 110.646 75.582 119 90.6201 119C105.658 119 117.964 110.646 118.938 100.08H119V89.2686H118.938C118.979 88.8219 119 88.3713 119 87.9171C119 76.7215 106.294 67.6457 90.6201 67.6457C74.9462 67.6457 62.2401 76.7215 62.2401 87.9171C62.2401 88.3713 62.261 88.8219 62.3022 89.2686ZM67.6458 87.9171C67.6458 91.3161 69.5654 94.9031 73.6944 97.8524C77.813 100.794 83.7799 102.783 90.6201 102.783C93.811 102.783 96.8119 102.35 99.5238 101.59L75.0333 77.0991C74.5679 77.3824 74.1212 77.677 73.6944 77.9819C69.5654 80.9312 67.6458 84.5182 67.6458 87.9171ZM107.546 97.8524C106.762 98.4122 105.911 98.9376 105 99.4213L80.2693 74.6903C83.3455 73.6555 86.8501 73.0514 90.6201 73.0514C97.4602 73.0514 103.427 75.04 107.546 77.9819C111.675 80.9312 113.594 84.5182 113.594 87.9171C113.594 91.3161 111.675 94.9031 107.546 97.8524ZM67.7207 99.8939C72.8851 104.923 81.2187 108.189 90.6201 108.189C100.021 108.189 108.355 104.923 113.519 99.8939C113.129 102.935 111.205 106.05 107.546 108.664C103.427 111.606 97.4602 113.594 90.6201 113.594C83.7799 113.594 77.813 111.606 73.6944 108.664C70.0348 106.05 68.1109 102.935 67.7207 99.8939Z" fill="#E0E1F3"/></symbol><!--Иконки 20*20 Системные значки, ошибки, успехи--><symbol id="state_star" viewBox="0 0 20 20"><path d="M10.7116 1.62272L12.7469 6.43972L17.9573 6.88734C18.3186 6.91855 18.4657 7.36945 18.1913 7.60681L14.2392 11.0309L15.4235 16.1246C15.5056 16.4786 15.1221 16.7571 14.8116 16.569L10.3338 13.8685L5.85603 16.569C5.54476 16.7562 5.16202 16.4778 5.24416 16.1246L6.42849 11.0309L2.47551 7.60599C2.20119 7.36863 2.34738 6.91773 2.70958 6.88652L7.91999 6.4389L9.95521 1.62272C10.0965 1.28762 10.5704 1.28762 10.7116 1.62272Z"/></symbol><symbol id="state_ok" viewBox="0 0 20 20"><path d="M17.4138 6.38043L16.1854 5.23566C16.017 5.07857 15.8122 5 15.5714 5C15.3304 5 15.1255 5.07857 14.9571 5.23566L9.03185 10.766L6.37635 8.28279C6.20773 8.12564 6.00301 8.04716 5.76223 8.04716C5.52129 8.04716 5.31657 8.12564 5.14795 8.28279L3.91959 9.42759C3.75097 9.5847 3.66669 9.77555 3.66669 10.0001C3.66669 10.2244 3.75097 10.4154 3.91959 10.5725L7.1892 13.6195L8.41766 14.7643C8.58619 14.9215 8.79097 15 9.03185 15C9.27263 15 9.47741 14.9213 9.64603 14.7643L10.8745 13.6195L17.4138 7.52528C17.5823 7.36814 17.6667 7.17732 17.6667 6.95281C17.6668 6.72841 17.5823 6.53757 17.4138 6.38043Z"/></symbol><symbol id="state_warning" viewBox="0 0 20 20"><path d="M16.876 13.6654L10.7939 3.44419C10.4414 2.85194 9.5586 2.85194 9.20606 3.44419L3.12397 13.6654C2.77143 14.2576 3.21283 15 3.91791 15H16.0821C16.7872 15 17.2286 14.2576 16.876 13.6654ZM10.0086 6.59173C10.3984 6.59173 10.7137 6.90593 10.7022 7.28408L10.5876 10.5C10.579 10.8059 10.321 11.0478 10.0057 11.0478C9.69045 11.0478 9.43249 10.8031 9.42389 10.5L9.31211 7.28408C9.30351 6.90593 9.61593 6.59173 10.0086 6.59173ZM10 13.6125C9.6016 13.6125 9.27772 13.2983 9.27772 12.9118C9.27772 12.5253 9.6016 12.2111 10 12.2111C10.3984 12.2111 10.7223 12.5253 10.7223 12.9118C10.7223 13.2983 10.3984 13.6125 10 13.6125Z"/></symbol><!--Иконки 24*24. Тонкие Обозначают само-собой разумеющиеся функции без подписей--><symbol id="magnifglass" viewBox="0 0 24 24"><path fill-rule="evenodd" clip-rule="evenodd" d="M15.0927 15.4362C13.956 16.4111 12.4786 17 10.8636 17C7.2738 17 4.36365 14.0899 4.36365 10.5C4.36365 6.91015 7.2738 4 10.8636 4C14.4535 4 17.3636 6.91015 17.3636 10.5C17.3636 12.115 16.7747 13.5923 15.7999 14.7291L20.374 19.3033C20.5693 19.4986 20.5693 19.8151 20.374 20.0104C20.1788 20.2057 19.8622 20.2057 19.6669 20.0104L15.0927 15.4362ZM16.3636 10.5C16.3636 13.5376 13.9012 16 10.8636 16C7.82608 16 5.36365 13.5376 5.36365 10.5C5.36365 7.46243 7.82608 5 10.8636 5C13.9012 5 16.3636 7.46243 16.3636 10.5Z"/></symbol><symbol id="arrow_right" viewBox="0 0 24 24"><path fill-rule="evenodd" clip-rule="evenodd" d="M10.8737 7.14645C11.069 6.95118 11.3856 6.95118 11.5808 7.14645L16.4344 12L11.5808 16.8536C11.3856 17.0488 11.069 17.0488 10.8737 16.8536C10.6785 16.6583 10.6785 16.3417 10.8737 16.1464L15.0202 12L10.8737 7.85355C10.6785 7.65829 10.6785 7.34171 10.8737 7.14645Z"/></symbol><symbol id="arrow_down" viewBox="0 0 24 24"><path fill-rule="evenodd" clip-rule="evenodd" d="M4.25305 7.13143C4.45661 6.94483 4.7729 6.95858 4.95949 7.16214L10.0909 11.7601L15.2223 7.16214C15.4089 6.95858 15.7252 6.94483 15.9288 7.13143C16.1323 7.31802 16.1461 7.63431 15.9595 7.83787L10.4595 12.8379C10.3648 12.9412 10.2311 13 10.0909 13C9.95076 13 9.81704 12.9412 9.72234 12.8379L4.22234 7.83787C4.03574 7.63431 4.04949 7.31802 4.25305 7.13143Z"/></symbol><symbol id="favorite_usual" viewBox="0 0 24 24"><path fill-rule="evenodd" clip-rule="evenodd" d="M12.4603 8.37944L11.2533 7.17244C10.4972 6.41634 9.49563 6 8.43061 6C7.3681 6 6.37075 6.41345 5.61939 7.16481C4.86403 7.92017 4.45153 8.91671 4.45458 9.9808L4.45458 9.98366C4.45458 11.047 4.86976 12.0414 5.62702 12.7987L12.4514 19.6231L19.2859 12.814C19.2861 12.8138 19.2857 12.8141 19.2859 12.814C20.0409 12.0587 20.4545 11.061 20.4545 9.99511V9.99225C20.4576 8.92619 20.0475 7.93022 19.2935 7.17626C18.5391 6.42178 17.5458 6.01145 16.4785 6.01145C15.4123 6.01145 14.4149 6.42478 13.6597 7.18007L12.4603 8.37944ZM3.45458 9.98366C3.45076 8.65189 3.96974 7.40025 4.91228 6.4577C5.85101 5.51897 7.10265 5 8.43061 5C9.76167 5 11.0165 5.52223 11.9589 6.46381C11.9594 6.46432 11.9599 6.46483 11.9604 6.46533L12.4603 6.96523L12.9525 6.47297C12.953 6.47247 12.9535 6.47198 12.954 6.47149C13.8964 5.52988 15.1474 5.01145 16.4785 5.01145C17.8103 5.01145 19.0581 5.5266 20.0007 6.46915C20.9432 7.4117 21.4584 8.66334 21.4545 9.99511C21.4545 11.3269 20.9356 12.5785 19.993 13.5211L12.8114 20.676C12.7121 20.7752 12.5786 20.8249 12.4488 20.8249C12.3191 20.8249 12.1855 20.7714 12.0863 20.6722L4.91992 13.5058C3.97737 12.5633 3.45458 11.3154 3.45458 9.98366Z"/></symbol><symbol id="favorite" viewBox="0 0 24 24"><path d="M20.3643 6.46915C19.4217 5.5266 18.1739 5.01145 16.8421 5.01145C15.5104 5.01145 14.2587 5.53042 13.3162 6.47297L12.8239 6.96523L12.324 6.46533C11.3815 5.52279 10.126 5 8.79423 5C7.46627 5 6.21463 5.51897 5.2759 6.4577C4.33335 7.40025 3.81438 8.65189 3.8182 9.98366C3.8182 11.3154 4.34099 12.5633 5.28353 13.5058L12.4499 20.6722C12.5492 20.7714 12.6827 20.8249 12.8125 20.8249C12.9422 20.8249 13.0758 20.7752 13.175 20.676L20.3566 13.5211C21.2992 12.5785 21.8182 11.3269 21.8182 9.99511C21.822 8.66334 21.3068 7.4117 20.3643 6.46915Z"/></symbol><symbol id="clear" viewBox="0 0 24 24"><path fill-rule="evenodd" clip-rule="evenodd" d="M5.19192 4.64645C5.38718 4.45118 5.70376 4.45118 5.89902 4.64645L12.5455 11.2929L19.1919 4.64645C19.3872 4.45118 19.7038 4.45118 19.899 4.64645C20.0943 4.84171 20.0943 5.15829 19.899 5.35355L13.2526 12L19.899 18.6464C20.0943 18.8417 20.0943 19.1583 19.899 19.3536C19.7038 19.5488 19.3872 19.5488 19.1919 19.3536L12.5455 12.7071L5.89902 19.3536C5.70376 19.5488 5.38718 19.5488 5.19192 19.3536C4.99666 19.1583 4.99666 18.8417 5.19192 18.6464L11.8384 12L5.19192 5.35355C4.99666 5.15829 4.99666 4.84171 5.19192 4.64645Z"/></symbol><symbol id="password_hidden" viewBox="0 0 24 24"><path fill-rule="evenodd" clip-rule="evenodd" d="M6.26267 4.64645C6.06741 4.45118 5.75083 4.45118 5.55557 4.64645C5.3603 4.84171 5.3603 5.15829 5.55557 5.35355L7.75281 7.5508L7.02256 7.96988C4.68481 9.51125 3.17275 11.4163 3.06821 11.5499C2.85609 11.8212 2.85609 12.1787 3.06821 12.45C3.24548 12.6766 7.47123 18 12.9093 18C14.445 18 15.8837 17.5749 17.1623 16.9603L19.5556 19.3536C19.7508 19.5488 20.0674 19.5488 20.2627 19.3536C20.4579 19.1583 20.4579 18.8417 20.2627 18.6464L18.0654 16.4491L18.7956 16.03C21.1332 14.4886 22.6454 12.5836 22.75 12.45C22.9622 12.1787 22.9622 11.8212 22.75 11.5499C22.5727 11.3233 18.3464 6 12.9093 6C11.3734 6 9.93448 6.42509 8.65587 7.03965L6.26267 4.64645ZM8.48538 8.28337L7.54761 8.82154C5.70284 10.0434 4.40261 11.5082 3.99125 12C4.32981 12.4049 5.27227 13.4712 6.62753 14.5188C8.30849 15.8181 10.5096 17 12.9093 17C14.1382 17 15.3175 16.6902 16.4089 16.2069L8.48538 8.28337ZM17.3328 15.7166L9.40931 7.79308C10.5008 7.30984 11.6802 7 12.9093 7C15.3085 7 17.5095 8.1818 19.1905 9.48115C20.5459 10.5288 21.4885 11.5951 21.827 11.9999C21.4156 12.4917 20.1152 13.9565 18.2705 15.1784L17.3328 15.7166Z"/></symbol><symbol id="password_shown" viewBox="0 0 24 24"><path fill-rule="evenodd" clip-rule="evenodd" d="M16.2727 12C16.2727 14.2091 14.4818 16 12.2727 16C10.0636 16 8.27271 14.2091 8.27271 12C8.27271 9.79086 10.0636 8 12.2727 8C14.4818 8 16.2727 9.79086 16.2727 12ZM15.2727 12C15.2727 13.6569 13.9296 15 12.2727 15C10.6159 15 9.27271 13.6569 9.27271 12C9.27271 10.3431 10.6159 9 12.2727 9C13.9296 9 15.2727 10.3431 15.2727 12Z"/><path fill-rule="evenodd" clip-rule="evenodd" d="M22.1136 11.5499C22.3258 11.8212 22.3258 12.1787 22.1136 12.45C22.009 12.5836 20.4968 14.4886 18.1592 16.03L16.6058 16.9216C15.3073 17.557 13.8406 18 12.2729 18C6.83482 18 2.60907 12.6766 2.4318 12.45C2.21967 12.1787 2.21967 11.8212 2.4318 11.5499C2.53634 11.4163 4.0484 9.51125 6.38615 7.96988L7.93966 7.07835C9.23808 6.44301 10.7049 6 12.2729 6C17.71 6 21.9363 11.3233 22.1136 11.5499ZM21.1905 11.9999C20.7792 12.4917 19.4788 13.9565 17.6341 15.1784L16.1372 16.0375C14.9455 16.6166 13.6399 17 12.2729 17C9.87318 17 7.67207 15.8181 5.99111 14.5188C4.63586 13.4712 3.6934 12.4049 3.35484 12C3.76619 11.5082 5.06643 10.0434 6.9112 8.82154L8.40822 7.96242C9.59984 7.38342 10.9056 7 12.2729 7C14.6721 7 16.8731 8.1818 18.5541 9.48115C19.9095 10.5288 20.852 11.5951 21.1905 11.9999Z"/></symbol><symbol id="edit" viewBox="0 0 24 24"><path fill-rule="evenodd" clip-rule="evenodd" d="M16.743 3.29289C17.1335 2.90237 17.7667 2.90237 18.1572 3.29289L20.4501 5.58579C20.8406 5.97631 20.8406 6.60947 20.4501 7L19.1572 8.29289C18.7667 8.68342 18.1335 8.68342 17.743 8.29289L15.4501 6C15.0596 5.60948 15.0596 4.97631 15.4501 4.58579L16.743 3.29289ZM17.4501 4L16.1572 5.29289L18.4501 7.58579L19.743 6.29289L17.4501 4ZM13.743 6.29289C14.1335 5.90237 14.7667 5.90237 15.1572 6.29289L17.4501 8.58579C17.8406 8.97631 17.8406 9.60948 17.4501 10L9.2057 18.2444L5.8798 19.0759C5.14742 19.2589 4.48403 18.5956 4.66712 17.8632L5.4986 14.5373L13.743 6.29289ZM6.22097 15.7709L5.63726 18.1057L7.97208 17.522L6.22097 15.7709ZM8.95008 17.0858L6.65719 14.7929L14.4501 7L16.743 9.29289L8.95008 17.0858Z"/></symbol><symbol id="delete" viewBox="0 0 24 24"><path fill-rule="evenodd" clip-rule="evenodd" d="M9.73333 3.5C9.45719 3.5 9.23333 3.72386 9.23333 4V4.39474H14.7667V4C14.7667 3.72386 14.5428 3.5 14.2667 3.5H9.73333ZM15.7667 4.39474V4C15.7667 3.17157 15.0951 2.5 14.2667 2.5H9.73333C8.90491 2.5 8.23333 3.17157 8.23333 4V4.39474H6.42105C5.36008 4.39474 4.5 5.25482 4.5 6.31579C4.5 7.01557 4.87416 7.62795 5.43333 7.96381V19C5.43333 20.3807 6.55262 21.5 7.93333 21.5H16.0667C17.4474 21.5 18.5667 20.3807 18.5667 19V8.14722C19.1117 7.94432 19.5 7.41925 19.5 6.80351V6.31579C19.5 5.25482 18.6399 4.39474 17.5789 4.39474H15.7667ZM17.5667 8.23684H6.43333V19C6.43333 19.8284 7.10491 20.5 7.93333 20.5H16.0667C16.8951 20.5 17.5667 19.8284 17.5667 19V8.23684ZM6.42105 5.39474C5.91237 5.39474 5.5 5.80711 5.5 6.31579C5.5 6.82447 5.91237 7.23684 6.42105 7.23684H18.0667C18.306 7.23684 18.5 7.04283 18.5 6.80351V6.31579C18.5 5.80711 18.0876 5.39474 17.5789 5.39474H6.42105ZM9.2 9.60526C9.47614 9.60526 9.7 9.82912 9.7 10.1053V18.6316C9.7 18.9077 9.47614 19.1316 9.2 19.1316C8.92386 19.1316 8.7 18.9077 8.7 18.6316V10.1053C8.7 9.82912 8.92386 9.60526 9.2 9.60526ZM12 9.60526C12.2761 9.60526 12.5 9.82912 12.5 10.1053V18.6316C12.5 18.9077 12.2761 19.1316 12 19.1316C11.7239 19.1316 11.5 18.9077 11.5 18.6316V10.1053C11.5 9.82912 11.7239 9.60526 12 9.60526ZM14.8 9.60526C15.0761 9.60526 15.3 9.82912 15.3 10.1053V18.6316C15.3 18.9077 15.0761 19.1316 14.8 19.1316C14.5239 19.1316 14.3 18.9077 14.3 18.6316V10.1053C14.3 9.82912 14.5239 9.60526 14.8 9.60526Z"/></symbol><!--Иконки 24*24. Толстые Привлекают внимание--><symbol id="minus" viewBox="0 0 24 24"><path d="M9 13V11H15V13H9Z"/></symbol><symbol id="plus" viewBox="0 0 24 24"><path d="M10.816 15.552V12.608H8V10.944H10.816V8H12.544V10.944H15.36V12.608H12.544V15.552H10.816Z"/></symbol><symbol id="apotheke" viewBox="0 0 24 24"><path fill-rule="evenodd" clip-rule="evenodd" d="M11.3615 5V10.3999L5.96155 10.3999V13.5999H11.3615V19H14.5615V13.5999H19.9615V10.3999L14.5615 10.3999V5H11.3615ZM9.36154 4C9.36154 3.44772 9.80926 3 10.3615 3H15.5615C16.1138 3 16.5615 3.44772 16.5615 4V8.3999L20.9615 8.3999C21.5138 8.3999 21.9615 8.84762 21.9615 9.3999V14.5999C21.9615 15.1522 21.5138 15.5999 20.9615 15.5999H16.5615V20C16.5615 20.5523 16.1138 21 15.5615 21H10.3615C9.80926 21 9.36154 20.5523 9.36154 20V15.5999H4.96155C4.40926 15.5999 3.96155 15.1522 3.96155 14.5999V9.3999C3.96155 8.84762 4.40926 8.3999 4.96155 8.3999L9.36154 8.3999V4Z"/></symbol><symbol id="apt_city" viewBox="0 0 24 24"><path fill-rule="evenodd" clip-rule="evenodd" d="M7.4231 9.5C7.4231 7.58395 8.26062 6.2336 9.36479 5.33974C10.5001 4.42073 11.9032 4 12.9231 4C13.943 4 15.3461 4.42073 16.4814 5.33974C17.5856 6.2336 18.4231 7.58395 18.4231 9.5C18.4231 10.2157 18.2035 11.1005 17.788 12.1055C17.3769 13.1 16.7987 14.1534 16.1413 15.1891C15.1047 16.8222 13.9006 18.3648 12.9231 19.4987C11.9456 18.3648 10.7415 16.8222 9.70487 15.1891C9.04746 14.1534 8.46932 13.1 8.05818 12.1055C7.64273 11.1005 7.4231 10.2157 7.4231 9.5ZM12.9231 2C11.443 2 9.59614 2.57927 8.1064 3.78526C6.58557 5.0164 5.4231 6.91605 5.4231 9.5C5.4231 10.5843 5.74513 11.7453 6.20989 12.8695C6.67895 14.0042 7.31957 15.1633 8.01632 16.2609C9.4088 18.4546 11.0733 20.4775 12.1903 21.6805C12.3795 21.8842 12.645 22 12.9231 22C13.2012 22 13.4667 21.8842 13.6559 21.6805C14.7729 20.4775 16.4374 18.4546 17.8299 16.2609C18.5266 15.1633 19.1672 14.0042 19.6363 12.8695C20.1011 11.7453 20.4231 10.5843 20.4231 9.5C20.4231 6.91605 19.2606 5.0164 17.7398 3.78526C16.2501 2.57927 14.4032 2 12.9231 2ZM11.4231 9.5C11.4231 8.67157 12.0947 8 12.9231 8C13.7515 8 14.4231 8.67157 14.4231 9.5C14.4231 10.3284 13.7515 11 12.9231 11C12.0947 11 11.4231 10.3284 11.4231 9.5ZM12.9231 6C10.9901 6 9.4231 7.567 9.4231 9.5C9.4231 11.433 10.9901 13 12.9231 13C14.8561 13 16.4231 11.433 16.4231 9.5C16.4231 7.567 14.8561 6 12.9231 6Z"/></symbol><symbol id="apt_time" viewBox="0 0 24 24"><path d="M13.8846 7C13.8846 6.44772 13.4369 6 12.8846 6C12.3323 6 11.8846 6.44772 11.8846 7V12.4599L15.7338 15.7593C16.1531 16.1187 16.7844 16.0701 17.1439 15.6508C17.5033 15.2315 17.4547 14.6002 17.0354 14.2407L13.8846 11.5401V7Z"/><path fill-rule="evenodd" clip-rule="evenodd" d="M22.8846 12C22.8846 17.5228 18.4075 22 12.8846 22C7.36177 22 2.88461 17.5228 2.88461 12C2.88461 6.47715 7.36177 2 12.8846 2C18.4075 2 22.8846 6.47715 22.8846 12ZM20.8846 12C20.8846 16.4183 17.3029 20 12.8846 20C8.46633 20 4.88461 16.4183 4.88461 12C4.88461 7.58172 8.46633 4 12.8846 4C17.3029 4 20.8846 7.58172 20.8846 12Z"/></symbol><symbol id="apt_phone" viewBox="0 0 24 24"><path fill-rule="evenodd" clip-rule="evenodd" d="M5.69517 3.68744C6.57093 2.80945 8.02121 2.7448 8.92753 3.653L11.3986 6.13025C12.3019 7.03669 12.2411 8.48563 11.3655 9.36346L10.6529 10.0777C11.0503 10.774 11.5689 11.5903 12.4231 12.4462C13.2751 13.3008 14.0888 13.8202 14.7826 14.2173L15.492 13.5065C16.3678 12.6286 17.8166 12.5659 18.723 13.4707L18.7245 13.4721L21.1965 15.9501C22.0987 16.8573 22.0368 18.3051 21.1632 19.1825L21.1519 19.1939L20.3866 19.9148L20.351 19.9427C19.9738 20.2385 19.5448 20.4816 19.0899 20.6597L19.088 20.6604C18.669 20.8235 18.2507 20.9284 17.8147 20.9806L17.8015 20.9822C17.3857 21.0264 13.3344 21.3073 8.45302 16.4152C5.03773 12.9921 3.52213 10.2217 3.90337 7.04221C3.95187 6.61503 4.0567 6.19767 4.21673 5.77498L4.22054 5.76492C4.39954 5.30707 4.64205 4.87712 4.93804 4.49859L4.96597 4.46287L5.68462 3.69801L5.69517 3.68744ZM7.11864 5.09256L6.48807 5.76367C6.32881 5.97396 6.19084 6.21941 6.08524 6.48823C5.97923 6.76935 5.9181 7.02392 5.89036 7.27006L5.88951 7.27754C5.6198 9.51855 6.57645 11.7027 9.86882 15.0025C14.0902 19.2332 17.4155 19.0089 17.5851 18.9938C17.848 18.9617 18.0999 18.8988 18.3616 18.797C18.6271 18.6929 18.8728 18.5547 19.0837 18.3944L19.7537 17.7634C19.8891 17.6196 19.8564 17.4391 19.7786 17.3606L17.31 14.8861C17.2319 14.8086 17.0506 14.7759 16.908 14.9189L15.1309 16.6996L14.4716 16.3354C14.3913 16.2911 14.3084 16.2449 14.2216 16.196L14.2192 16.1947L14.2174 16.1937C13.4183 15.7499 12.2408 15.0961 11.0073 13.8589C9.77487 12.6238 9.12223 11.4461 8.67877 10.6458L8.66966 10.6294C8.66275 10.6169 8.65602 10.6047 8.64944 10.5927C8.61011 10.5214 8.57618 10.4599 8.54261 10.4011L8.16464 9.7384L9.94915 7.95138C10.0936 7.80652 10.0611 7.62159 9.98245 7.5425L7.51185 5.06575M17.59 18.9933C17.5925 18.9931 17.5925 18.9931 17.59 18.9933V18.9933Z"/></symbol><symbol id="apt_card" viewBox="0 0 24 24"><path d="M15.3077 13C15.0315 13 14.8077 13.2239 14.8077 13.5V14.5C14.8077 14.7761 15.0315 15 15.3077 15H18.3077C18.5838 15 18.8077 14.7761 18.8077 14.5V13.5C18.8077 13.2239 18.5838 13 18.3077 13H15.3077Z"/><path fill-rule="evenodd" clip-rule="evenodd" d="M3.80768 5C3.25539 5 2.80768 5.44772 2.80768 6V18C2.80768 18.5523 3.25539 19 3.80768 19H21.8077C22.36 19 22.8077 18.5523 22.8077 18V6C22.8077 5.44772 22.36 5 21.8077 5H3.80768ZM4.80768 7V9H20.8077V7H4.80768ZM4.80768 17V11H20.8077V17H4.80768Z"/></symbol><symbol id="vitamins" viewBox="0 0 24 24"><path fill-rule="evenodd" clip-rule="evenodd" d="M5.59369 12.1884C3.4815 10.0762 3.4815 6.65169 5.59369 4.5395C7.70588 2.42731 11.1304 2.42731 13.2426 4.5395L20.0024 11.2993C22.1146 13.4115 22.1146 16.836 20.0024 18.9482C17.8902 21.0604 14.4657 21.0604 12.3535 18.9482L5.59369 12.1884ZM15.9181 10.0435L18.5882 12.7135C19.9193 14.0446 19.9193 16.2029 18.5882 17.534C17.257 18.8651 15.0988 18.8651 13.7677 17.534L11.0977 14.864L15.9181 10.0435ZM14.5039 8.62926L9.68344 13.4497L7.0079 10.7742C5.67676 9.44307 5.67676 7.28486 7.0079 5.95372C8.33904 4.62258 10.4973 4.62257 11.8284 5.95372L14.5039 8.62926Z"/><path fill-rule="evenodd" clip-rule="evenodd" d="M10.345 6.05884C10.9278 6.31379 11.4639 6.78045 11.9763 7.2929C12.3669 7.68342 12.3669 8.31659 11.9763 8.70711C11.5858 9.09763 10.9526 9.09763 10.5621 8.70711C10.0746 8.21955 9.76067 7.98621 9.54341 7.89116C9.45079 7.85064 9.39917 7.84632 9.37285 7.84675C9.34805 7.84715 9.30073 7.85229 9.21644 7.89443C8.72246 8.14142 8.12179 7.9412 7.8748 7.44722C7.62781 6.95324 7.82803 6.35257 8.32201 6.10558C8.99983 5.76667 9.68608 5.77055 10.345 6.05884Z"/></symbol><symbol id="apt_cash" viewBox="0 0 24 24"><path fill-rule="evenodd" clip-rule="evenodd" d="M4.75362 19C4.71573 19.2965 4.81066 19.6068 5.03841 19.8345C5.42893 20.2251 6.0621 20.2251 6.45262 19.8345L7.28715 19H21.7308C22.2831 19 22.7308 18.5523 22.7308 18V6C22.7308 5.44772 22.2831 5 21.7308 5H20.917C20.9291 4.72929 20.8318 4.45459 20.6251 4.24787C20.2345 3.85735 19.6014 3.85735 19.2109 4.24787L18.4587 5H3.73077C3.17849 5 2.73077 5.44772 2.73077 6V18C2.73077 18.5523 3.17849 19 3.73077 19H4.75362ZM9.28715 17H20.7308V11H15.2872L9.28715 17ZM12.4587 11L6.45873 17H4.73077V11H12.4587ZM17.2872 9H20.7308V7H19.2872L17.2872 9ZM16.4587 7L14.4587 9H4.73077V7H16.4587ZM15.7308 13.5C15.7308 13.2239 15.9546 13 16.2308 13H18.2308C18.5069 13 18.7308 13.2239 18.7308 13.5V14.5C18.7308 14.7761 18.5069 15 18.2308 15H16.2308C15.9546 15 15.7308 14.7761 15.7308 14.5V13.5Z"/></symbol><symbol id="properties_count" viewBox="0 0 24 24"><path fill-rule="evenodd" clip-rule="evenodd" d="M10.6923 15C13.4537 15 15.6923 12.7614 15.6923 10C15.6923 7.23858 13.4537 5 10.6923 5C7.9309 5 5.69232 7.23858 5.69232 10C5.69232 12.7614 7.9309 15 10.6923 15ZM10.6923 17C14.5583 17 17.6923 13.866 17.6923 10C17.6923 6.13401 14.5583 3 10.6923 3C6.82633 3 3.69232 6.13401 3.69232 10C3.69232 13.866 6.82633 17 10.6923 17Z"/><path fill-rule="evenodd" clip-rule="evenodd" d="M17.6544 10.7327C17.6795 10.4919 17.6923 10.2474 17.6923 10C17.6923 9.45924 17.631 8.9328 17.5149 8.42726C19.9577 9.3621 21.6923 11.7285 21.6923 14.5C21.6923 18.0898 18.7822 21 15.1923 21C12.4208 21 10.0544 19.2654 9.11958 16.8226C9.62512 16.9387 10.1516 17 10.6923 17C10.9398 17 11.1842 16.9872 11.425 16.9621C12.2287 18.1893 13.6158 19 15.1923 19C17.6776 19 19.6923 16.9853 19.6923 14.5C19.6923 12.9235 18.8817 11.5364 17.6544 10.7327Z"/><path fill-rule="evenodd" clip-rule="evenodd" d="M4.69232 10C4.69232 9.44772 5.14004 9 5.69232 9H15.6923C16.2446 9 16.6923 9.44772 16.6923 10C16.6923 10.5523 16.2446 11 15.6923 11H5.69232C5.14004 11 4.69232 10.5523 4.69232 10Z"/><path fill-rule="evenodd" clip-rule="evenodd" d="M13.6923 15C13.6923 14.4477 14.14 14 14.6923 14H19.6923C20.2446 14 20.6923 14.4477 20.6923 15C20.6923 15.5523 20.2446 16 19.6923 16H14.6923C14.14 16 13.6923 15.5523 13.6923 15Z"/></symbol><symbol id="properties_other" viewBox="0 0 24 24"><path fill-rule="evenodd" clip-rule="evenodd" d="M11.7526 3.87296C12.116 3.1177 13.1915 3.1177 13.5549 3.87296L20.6243 18.5664C20.9437 19.2303 20.4599 20 19.7232 20H5.58437C4.84762 20 4.36382 19.2303 4.68324 18.5664L7.1565 13.4259C7.00982 13.7307 7.30318 13.121 7.1565 13.4259L11.7526 3.87296ZM8.85915 14.5L7.52007 17.2832C7.36036 17.6152 7.60226 18 7.97064 18H17.3369C17.7053 18 17.9472 17.6152 17.7875 17.2832L16.4484 14.5H8.85915ZM15.4861 12.5H9.8214L12.2032 7.5495C12.3849 7.17187 12.9227 7.17187 13.1043 7.5495L15.4861 12.5Z"/></symbol><symbol id="buy" viewBox="0 0 24 24"><path fill-rule="evenodd" clip-rule="evenodd" d="M8.22727 6.77778H7.11536C6.60513 6.77778 6.17673 7.16191 6.12128 7.66911L4.62128 20.3913C4.59041 20.6738 4.68114 20.956 4.87083 21.1676C5.06051 21.3791 5.33123 21.5 5.61536 21.5H19.6154C19.8995 21.5 20.1702 21.3791 20.3599 21.1676C20.5496 20.956 20.6403 20.6738 20.6094 20.3913L19.1094 7.66911C19.054 7.16191 18.6256 6.77778 18.1154 6.77778H17.0035C17.0035 6 16.5675 4.39145 16.1094 3.76643C15.387 2.78093 14.2292 2 12.6154 2C11.0015 2 9.84374 2.78093 9.12134 3.76643C8.66318 4.39145 8.22727 6 8.22727 6.77778ZM10.3021 6.77778H14.9286C14.9286 6 14.6853 5.20668 14.4963 4.94884C14.0937 4.39962 13.5015 4 12.6154 4C11.7292 4 11.137 4.39962 10.7344 4.94884C10.5454 5.20668 10.3021 6 10.3021 6.77778ZM8.01201 8.77778L6.73063 19.5H18.5001L17.2187 8.77778H8.01201Z"/></symbol><symbol id="properties_package" viewBox="0 0 24 24"><path fill-rule="evenodd" clip-rule="evenodd" d="M7.5769 5V8H17.5769V5H7.5769ZM5.5769 9C5.5769 9.55228 6.02462 10 6.5769 10L6.5769 13.999C6.5769 13.9994 6.5769 13.9997 6.5769 14V17C6.5769 17.0002 6.5769 17.0005 6.5769 17.0007L6.5769 21C6.5769 21.5523 7.02462 22 7.5769 22H17.5769C18.1292 22 18.5769 21.5523 18.5769 21V10C19.1292 10 19.5769 9.55228 19.5769 9V4C19.5769 3.44772 19.1292 3 18.5769 3H6.5769C6.02462 3 5.5769 3.44772 5.5769 4V9ZM8.5769 19V20H16.5769V10H8.5769V12H13.5769C14.6815 12 15.5769 12.8954 15.5769 14V17C15.5769 18.1046 14.6815 19 13.5769 19H8.5769ZM8.5769 14V17H13.5769V14H8.5769Z"/></symbol><symbol id="properties_dose" viewBox="0 0 24 24"><path d="M6.53845 5C6.53845 4.44772 6.98617 4 7.53845 4C8.09074 4 8.53845 4.44772 8.53845 5V5.02C8.61923 5.00689 8.70284 5 8.78845 5H11.2885C11.9788 5 12.5385 5.44772 12.5385 6C12.5385 6.55228 11.9788 7 11.2885 7H8.78845C8.70284 7 8.61923 6.99311 8.53845 6.98V9.02478C8.63034 9.00856 8.72597 9 8.82417 9H15.2527C15.9628 9 16.5385 9.44772 16.5385 10C16.5385 10.5523 15.9628 11 15.2527 11H8.82417C8.72597 11 8.63034 10.9914 8.53845 10.9752V13.02C8.61923 13.0069 8.70284 13 8.78845 13H11.2885C11.9788 13 12.5385 13.4477 12.5385 14C12.5385 14.5523 11.9788 15 11.2885 15H8.78845C8.70284 15 8.61923 14.9931 8.53845 14.98V17H15.2885C15.9788 17 16.5385 17.4477 16.5385 18C16.5385 18.5523 15.9788 19 15.2885 19H7.78845C7.74151 19 7.69517 18.9979 7.64956 18.9939C7.61308 18.9979 7.57601 19 7.53845 19C6.98617 19 6.53845 18.5523 6.53845 18V5Z"/></symbol><symbol id="properties_form" viewBox="0 0 24 24"><path fill-rule="evenodd" clip-rule="evenodd" d="M12.8522 4.60458L19.8954 11.6478C22.0349 13.7873 22.0349 17.256 19.8954 19.3954C17.756 21.5349 14.2873 21.5349 12.1478 19.3954L5.10458 12.3522C2.96514 10.2127 2.96514 6.74401 5.10458 4.60458C7.24401 2.46514 10.7127 2.46514 12.8522 4.60458ZM6.51323 6.01323C5.15177 7.37469 5.15177 9.58205 6.51323 10.9435L13.5565 17.9868C14.9179 19.3482 17.1253 19.3482 18.4868 17.9868C19.8482 16.6253 19.8482 14.4179 18.4868 13.0565L11.4435 6.01323C10.0821 4.65177 7.87469 4.65177 6.51323 6.01323Z"/><path fill-rule="evenodd" clip-rule="evenodd" d="M7.32909 7.3847C7.15513 6.86282 7.43718 6.29873 7.95906 6.12477L7.9688 6.12157L7.96018 6.12439L7.96133 6.12401L7.96371 6.12323L7.9688 6.12157L7.98029 6.11792C7.98853 6.11535 7.99793 6.11251 8.00845 6.10945C8.02949 6.10334 8.0551 6.09638 8.08498 6.08907C8.14466 6.07448 8.22205 6.05839 8.31476 6.04514C8.49964 6.01873 8.75 6.00302 9.04435 6.03572C9.64912 6.10292 10.392 6.37038 11.0913 7.06972C11.4803 7.45871 11.4803 8.08938 11.0913 8.47837C10.7024 8.86736 10.0717 8.86736 9.6827 8.47837C9.32555 8.12122 9.01195 8.03652 8.82435 8.01567C8.72251 8.00436 8.64272 8.01065 8.59649 8.01726C8.57894 8.01976 8.56697 8.02221 8.56135 8.02346C8.04735 8.1786 7.49998 7.89737 7.32909 7.3847ZM9.6827 15.5216C9.29371 15.1326 9.29371 14.502 9.6827 14.113L14.2608 9.53486C14.6498 9.14587 15.2805 9.14587 15.6695 9.53486C16.0585 9.92385 16.0585 10.5545 15.6695 10.9435L11.0913 15.5216C10.7024 15.9106 10.0717 15.9106 9.6827 15.5216Z"/></symbol><symbol id="progressive-discount" viewBox="0 0 15 14"><path d="M13.5 0A1.5 1.5 0 0 0 12 1.5v11a1.5 1.5 0 0 0 3 0v-11A1.5 1.5 0 0 0 13.5 0zM6 4.5a1.5 1.5 0 1 1 3 0v8a1.5 1.5 0 0 1-3 0zM0 8.5a1.5 1.5 0 1 1 3 0v4a1.5 1.5 0 0 1-3 0z"/></symbol><symbol id="info_reciep" viewBox="0 0 24 24"><path d="M11.9205 13.3379C11.947 13.7109 12.2573 14 12.6313 14C13.0053 14 13.3156 13.7109 13.3421 13.3379L13.571 10.1111L13.5791 9.99742C13.618 9.45855 13.1913 9 12.651 9C12.1047 9 11.6676 9.45343 11.6876 9.99933L11.6917 10.1111L11.9205 13.3379Z"/><path d="M13.651 16C13.651 16.5523 13.2033 17 12.651 17C12.0987 17 11.651 16.5523 11.651 16C11.651 15.4477 12.0987 15 12.651 15C13.2033 15 13.651 15.4477 13.651 16Z"/><path fill-rule="evenodd" clip-rule="evenodd" d="M11.7204 3.48075C12.1063 2.81924 13.0621 2.81924 13.448 3.48075L22.2069 18.4961C22.5958 19.1628 22.115 20 21.3432 20H3.82524C3.05345 20 2.57257 19.1628 2.96146 18.4961L11.7204 3.48075ZM5.56627 18L12.5842 5.96926L19.6021 18H5.56627Z"/></symbol><symbol id="info_reciep_light" viewBox="0 0 24 24"><path d="M11.4591 13.3379C11.4855 13.7109 11.7959 14 12.1698 14C12.5438 14 12.8541 13.7109 12.8806 13.3379L13.1095 10.1111L13.1177 9.99742C13.1565 9.45855 12.7298 9 12.1895 9C11.6432 9 11.2061 9.45343 11.2261 9.99933L11.2302 10.1111L11.4591 13.3379Z"/><path d="M13.1895 16C13.1895 16.5523 12.7418 17 12.1895 17C11.6372 17 11.1895 16.5523 11.1895 16C11.1895 15.4477 11.6372 15 12.1895 15C12.7418 15 13.1895 15.4477 13.1895 16Z"/><path fill-rule="evenodd" clip-rule="evenodd" d="M11.2589 3.48075C11.6448 2.81924 12.6006 2.81924 12.9865 3.48075L21.7455 18.4961C22.1343 19.1628 21.6535 20 20.8817 20H3.36375C2.59196 20 2.11109 19.1628 2.49997 18.4961L11.2589 3.48075ZM5.10479 18L12.1227 5.96926L19.1406 18H5.10479Z"/></symbol><symbol id="info_sale" viewBox="0 0 24 24"><path d="M8.42949 15.9182C8.03897 15.5277 8.03897 14.8945 8.42949 14.504L14.7008 8.23271C15.0913 7.84219 15.7245 7.84219 16.115 8.23271C16.5055 8.62324 16.5055 9.2564 16.115 9.64693L9.8437 15.9182C9.45318 16.3087 8.82001 16.3087 8.42949 15.9182Z"/><path d="M11.4231 9.5C11.4231 10.3284 10.7515 11 9.9231 11C9.09467 11 8.4231 10.3284 8.4231 9.5C8.4231 8.67157 9.09467 8 9.9231 8C10.7515 8 11.4231 8.67157 11.4231 9.5Z"/><path d="M16.4231 14.504C16.4231 15.3324 15.7515 16.004 14.9231 16.004C14.0947 16.004 13.4231 15.3324 13.4231 14.504C13.4231 13.6756 14.0947 13.004 14.9231 13.004C15.7515 13.004 16.4231 13.6756 16.4231 14.504Z"/><path fill-rule="evenodd" clip-rule="evenodd" d="M21.4231 12C21.4231 16.9706 17.3937 21 12.4231 21C7.45253 21 3.4231 16.9706 3.4231 12C3.4231 7.02944 7.45253 3 12.4231 3C17.3937 3 21.4231 7.02944 21.4231 12ZM19.4231 12C19.4231 15.866 16.2891 19 12.4231 19C8.5571 19 5.4231 15.866 5.4231 12C5.4231 8.13401 8.5571 5 12.4231 5C16.2891 5 19.4231 8.13401 19.4231 12Z"/></symbol><symbol id="info_sharity" viewBox="0 0 24 24"><path fill-rule="evenodd" clip-rule="evenodd" d="M16.5727 12.8462L12.5829 16.9154C12.5277 16.9718 12.4535 17 12.3815 17C12.3094 17 12.2352 16.9696 12.1801 16.9132L8.19873 12.8375C7.67509 12.3014 7.38465 11.5918 7.38465 10.8343C7.38254 10.0769 7.67085 9.36508 8.19449 8.82903C8.71601 8.29515 9.41136 8 10.1491 8C10.7491 8 11.3212 8.19551 11.7953 8.55527L11.8155 8.57078C11.8385 8.58851 11.8612 8.60664 11.8836 8.62515C11.9622 8.6899 12.0378 8.75936 12.1101 8.83337L12.3878 9.11768L12.6613 8.83771C12.7332 8.76413 12.8083 8.69508 12.8863 8.63071C12.9109 8.61048 12.9357 8.59071 12.9608 8.57141L12.9742 8.56114C13.4481 8.20107 14.0195 8.00651 14.6202 8.00651C15.36 8.00651 16.0533 8.29949 16.5769 8.83554C17.1006 9.37159 17.3868 10.0834 17.3846 10.8408C17.3846 11.5983 17.0963 12.3101 16.5727 12.8462ZM10.5838 10.1466L10.5946 10.1549C10.6232 10.1772 10.6516 10.2024 10.6794 10.2309L10.9571 10.5152C11.3335 10.9005 11.8493 11.1177 12.3878 11.1177C12.9264 11.1177 13.4422 10.9005 13.8185 10.5152L14.092 10.2353C14.1206 10.206 14.1496 10.1803 14.1787 10.1578L14.1858 10.1524C14.3135 10.0558 14.4599 10.0065 14.6202 10.0065C14.8158 10.0065 14.995 10.0782 15.1462 10.2331C15.2981 10.3886 15.3853 10.5943 15.3846 10.8353L15.3846 10.8408C15.3846 11.0815 15.2968 11.2896 15.1429 11.4476L15.142 11.4486L12.3848 14.2606L9.62941 11.4399C9.47114 11.2779 9.38465 11.07 9.38466 10.8343L9.38465 10.8287C9.38398 10.5917 9.4706 10.3848 9.62517 10.2266C9.77575 10.0724 9.95758 10 10.1491 10C10.3064 10 10.454 10.049 10.5838 10.1466Z"/><path fill-rule="evenodd" clip-rule="evenodd" d="M12.3846 21C17.3552 21 21.3846 16.9706 21.3846 12C21.3846 7.02944 17.3552 3 12.3846 3C7.41408 3 3.38464 7.02944 3.38464 12C3.38464 16.9706 7.41408 21 12.3846 21ZM12.3846 19C16.2506 19 19.3846 15.866 19.3846 12C19.3846 8.13401 16.2506 5 12.3846 5C8.51865 5 5.38464 8.13401 5.38464 12C5.38464 15.866 8.51865 19 12.3846 19Z"/></symbol><symbol id="info_original" viewBox="0 0 24 24"><path fill-rule="evenodd" clip-rule="evenodd" d="M12.3462 14C15.1076 14 17.3462 11.7614 17.3462 9C17.3462 6.23858 15.1076 4 12.3462 4C9.58477 4 7.34619 6.23858 7.34619 9C7.34619 11.7614 9.58477 14 12.3462 14ZM17.81 13.3761C18.7712 12.1775 19.3462 10.6559 19.3462 9C19.3462 5.13401 16.2122 2 12.3462 2C8.4802 2 5.34619 5.13401 5.34619 9C5.34619 10.2302 5.66355 11.3863 6.22087 12.3909C5.91908 12.8509 5.62441 13.399 5.36438 14.0064C4.7977 15.3302 4.34619 17.0471 4.34619 19V20.2071C4.34619 20.6525 4.88476 20.8756 5.19974 20.5606L6.0533 19.7071C6.48451 19.2759 6.82988 19.0891 7.34677 18.8454C7.45447 19.0388 7.57301 19.233 7.69672 19.4222C8.08376 20.0142 8.58458 20.6526 9.13908 21.2071L9.82611 21.8941C10.1137 22.1817 10.606 22.0239 10.6729 21.6228L10.8326 20.6644C11.0905 19.1168 11.3907 17.9989 11.7344 17.0775C12.2842 18.2618 13.1085 19.5498 14.2853 20.7266L15.1388 21.5801C15.4538 21.8951 15.9924 21.672 15.9924 21.2266V20.0195C15.9924 19.4097 16.1045 19.0334 16.2977 18.4956C16.5106 18.5562 16.7318 18.6097 16.953 18.656C17.6453 18.8009 18.4508 18.8982 19.235 18.8982H20.2066C20.6133 18.8982 20.8499 18.4385 20.6135 18.1075L20.0488 17.3169C19.0803 15.9611 18.3154 14.5202 17.81 13.3761ZM16.2561 14.8071C15.418 15.3725 14.451 15.7612 13.4084 15.9199C13.6585 16.5099 13.993 17.1431 14.4262 17.7767C14.4673 17.6613 14.5092 17.5477 14.5507 17.4352C14.6202 17.247 14.6886 17.0616 14.7508 16.8748L14.9479 16.2835C15.0491 15.98 15.4052 15.8483 15.6795 16.0129L16.214 16.3336C16.3508 16.4157 16.7002 16.5496 17.2275 16.6689C16.8258 15.9971 16.5124 15.3871 16.2561 14.8071ZM7.203 14.7935C7.31381 14.5347 7.42733 14.2996 7.53935 14.0887C8.27754 14.7862 9.16744 15.3249 10.1544 15.65C9.83695 16.3811 9.55057 17.1995 9.29586 18.2113C9.00742 17.754 8.85504 17.4123 8.81633 17.2574L8.66516 16.6528C8.58758 16.3424 8.24259 16.1838 7.95648 16.3268L7.39898 16.6056C7.22295 16.6936 7.0435 16.7763 6.86128 16.8603L6.86124 16.8603L6.86121 16.8603C6.75232 16.9105 6.64244 16.9612 6.5317 17.0137C6.68836 16.1796 6.93033 15.4305 7.203 14.7935Z"/><path fill-rule="evenodd" clip-rule="evenodd" d="M11.2856 7.93934C10.6998 8.52513 10.6998 9.47487 11.2856 10.0607C11.6238 10.3988 12.0832 10.5418 12.524 10.4895C13.0724 10.4244 13.7235 10.3772 14.114 10.7678C14.5045 11.1583 14.5083 11.8081 14.0236 12.0729C12.6953 12.7988 10.9959 12.5994 9.87136 11.4749C8.50452 10.108 8.50452 7.89196 9.87136 6.52513C10.9959 5.40059 12.6953 5.20124 14.0236 5.92708C14.5083 6.19191 14.5045 6.84171 14.114 7.23223C13.7235 7.62276 13.0724 7.57558 12.524 7.5105C12.0832 7.45821 11.6238 7.60116 11.2856 7.93934Z"/></symbol><symbol id="info_goodset" viewBox="0 0 24 24"><path fill-rule="evenodd" clip-rule="evenodd" d="M8.15082 3.5C9.71292 1.93791 12.2456 1.93791 13.8077 3.5C15.3698 5.0621 15.3698 7.59476 13.8077 9.15686L9.21148 13.7531C7.64939 15.3151 5.11673 15.3151 3.55463 13.7531C1.99253 12.191 1.99253 9.65829 3.55463 8.0962L8.15082 3.5ZM7.79727 12.3388L9.46884 10.7426L6.64042 7.91422L4.96884 9.51041C4.18779 10.2915 4.18779 11.5578 4.96884 12.3388C5.74989 13.1199 7.01622 13.1199 7.79727 12.3388ZM12.3935 4.91422C13.1745 5.69527 13.1745 6.9616 12.3935 7.74264L10.8831 9.32843L8.05463 6.5L9.56504 4.91422C10.3461 4.13317 11.6124 4.13317 12.3935 4.91422Z"/><path fill-rule="evenodd" clip-rule="evenodd" d="M15.3077 21C18.0691 21 20.3077 18.7614 20.3077 16C20.3077 13.2386 18.0691 11 15.3077 11C12.5463 11 10.3077 13.2386 10.3077 16C10.3077 18.7614 12.5463 21 15.3077 21ZM15.3077 19C16.9645 19 18.3077 17.6569 18.3077 16C18.3077 15.6302 18.2408 15.276 18.1184 14.9489L14.2566 18.8107C14.5837 18.9331 14.9379 19 15.3077 19ZM16.8265 13.4124L12.72 17.5189C12.458 17.0734 12.3077 16.5542 12.3077 16C12.3077 14.3431 13.6508 13 15.3077 13C15.8619 13 16.381 13.1503 16.8265 13.4124Z"/></symbol><symbol id="info_addvits" viewBox="0 0 24 24"><path fill-rule="evenodd" clip-rule="evenodd" d="M13.269 9V7H15.269V5H17.269V7H19.269V9H17.269V11H15.269V9H13.269ZM14.269 3C13.769 3 13.269 3.5 13.269 4V5H12.269C11.769 5 11.269 5.5 11.269 6V10C11.269 10.5 11.769 11 12.269 11H13.269V12C13.269 12.5 13.769 13 14.269 13H18.269C18.769 13 19.269 12.5 19.269 12V11H20.269C20.769 11 21.269 10.5 21.269 10V6C21.269 5.5 20.769 5 20.269 5H19.269V4C19.269 3.5 18.769 3 18.269 3H14.269ZM12.6078 16.2574L11.0116 14.5858L8.1832 17.4142L9.77939 19.0858C10.5604 19.8668 11.8268 19.8668 12.6078 19.0858C13.3889 18.3047 13.3889 17.0384 12.6078 16.2574ZM5.1832 11.6612C5.96425 10.8801 7.23058 10.8801 8.01163 11.6612L9.59741 13.1716L6.76898 16L5.1832 14.4896C4.40215 13.7085 4.40215 12.4422 5.1832 11.6612ZM3.76899 15.9038C2.20689 14.3417 2.20689 11.809 3.76898 10.247C5.33108 8.68485 7.86374 8.68485 9.42584 10.247L14.022 14.8431C15.5841 16.4052 15.5841 18.9379 14.022 20.5C12.4599 22.0621 9.92728 22.0621 8.36518 20.5L3.76899 15.9038Z"/></symbol><symbol id="info_recieponly" viewBox="0 0 24 24"><path fill-rule="evenodd" clip-rule="evenodd" d="M20.2305 12C20.2305 16.4183 16.6487 20 12.2305 20C7.81219 20 4.23047 16.4183 4.23047 12C4.23047 7.58172 7.81219 4 12.2305 4C16.6487 4 20.2305 7.58172 20.2305 12ZM12.2108 13C11.8368 13 11.5265 12.7109 11.5 12.3379L10.7305 9.11107L10.7264 8.99933C10.7064 8.45343 11.2305 7.5 12.2305 7.5C13.2305 7.5 13.7693 8.46113 13.7305 9L13.7223 9.11365L12.9215 12.3379C12.8951 12.7109 12.5848 13 12.2108 13ZM12.2305 16.5C12.7828 16.5 13.2305 16.0523 13.2305 15.5C13.2305 14.9477 12.7828 14.5 12.2305 14.5C11.6782 14.5 11.2305 14.9477 11.2305 15.5C11.2305 16.0523 11.6782 16.5 12.2305 16.5Z"/></symbol><symbol id="articl_comments" viewBox="0 0 24 24"><path fill-rule="evenodd" clip-rule="evenodd" d="M9.28444 16H20.1533V7H4.15332V16H7.15332V17.9535L9.28444 16ZM10.0624 18H21.1533C21.7056 18 22.1533 17.5523 22.1533 17V6C22.1533 5.44772 21.7056 5 21.1533 5H3.15332C2.60104 5 2.15332 5.44772 2.15332 6V17C2.15332 17.5523 2.60104 18 3.15332 18H5.15332V20.2268C5.15332 21.0969 6.18764 21.5519 6.82905 20.9639L10.0624 18Z"/></symbol><symbol id="articl_views" viewBox="0 0 24 24"><path fill-rule="evenodd" clip-rule="evenodd" d="M15.1147 12C15.1147 13.6569 13.7716 15 12.1147 15C10.4579 15 9.11475 13.6569 9.11475 12C9.11475 10.3431 10.4579 9 12.1147 9C13.7716 9 15.1147 10.3431 15.1147 12ZM13.1147 12C13.1147 12.5523 12.667 13 12.1147 13C11.5625 13 11.1147 12.5523 11.1147 12C11.1147 11.4477 11.5625 11 12.1147 11C12.667 11 13.1147 11.4477 13.1147 12Z"/><path fill-rule="evenodd" clip-rule="evenodd" d="M21.8621 12.6998C21.7496 12.8391 20.2721 14.6424 17.9831 16.1053L17.9708 16.1132L16.4649 16.9509L16.4508 16.9576C15.1671 17.5664 13.6983 18 12.1149 18C9.37327 18 6.97005 16.7028 5.25857 15.4205C3.5405 14.1333 2.4644 12.82 2.36737 12.6998C2.03061 12.2824 2.03049 11.7176 2.36732 11.3002C2.47975 11.1609 3.95715 9.35748 6.24635 7.89457L6.25867 7.8867L7.76462 7.04906L7.77872 7.04237C9.06245 6.43354 10.5314 6 12.1149 6C14.8561 6 17.2592 7.29722 18.9707 8.57941C20.6888 9.86653 21.765 11.1798 21.8621 11.3001C22.199 11.7176 22.199 12.2823 21.8621 12.6998ZM19.9779 11.9999C19.44 12.5829 18.3757 13.6367 16.9705 14.541L15.5725 15.3187C14.4888 15.8271 13.3219 16.1538 12.1149 16.1538C9.98149 16.1538 7.98749 15.1316 6.42348 13.9599C5.43014 13.2157 4.67598 12.4603 4.2515 12C4.78938 11.417 5.85363 10.3632 7.25888 9.45892L8.65693 8.68129C9.74059 8.17292 10.9076 7.84615 12.1149 7.84615C14.2479 7.84615 16.2418 8.86832 17.8058 10.0401C18.7992 10.7843 19.5534 11.5397 19.9779 11.9999Z"/></symbol><symbol id="articl_time" viewBox="0 0 24 24"><path fill-rule="evenodd" clip-rule="evenodd" d="M6.07617 5C6.07617 4.44772 6.52389 4 7.07617 4H17.0762C17.6285 4 18.0762 4.44772 18.0762 5C18.0762 5.55228 17.6285 6 17.0762 6V8C17.0762 9.4823 16.1137 10.3741 15.4951 10.9308C15.4441 10.9768 15.3955 11.0202 15.3494 11.0615C15.0789 11.3036 14.8896 11.4731 14.7436 11.6532C14.5951 11.8364 14.5762 11.9326 14.5762 12C14.5762 12.0476 14.5781 12.0962 14.6963 12.2223C14.8134 12.3472 14.9446 12.4489 15.1427 12.6024C15.2307 12.6705 15.3319 12.7489 15.4509 12.8441C15.7889 13.1146 16.2081 13.4806 16.5335 14.0013C16.8703 14.5401 17.0762 15.1934 17.0762 16V18C17.6285 18 18.0762 18.4477 18.0762 19C18.0762 19.5523 17.6285 20 17.0762 20H7.07617C6.52389 20 6.07617 19.5523 6.07617 19C6.07617 18.4477 6.52389 18 7.07617 18V16C7.07617 14.5603 7.98356 13.5534 8.61907 12.9179C8.76038 12.7766 8.88229 12.6591 8.99068 12.5547C9.1662 12.3856 9.30624 12.2507 9.43571 12.104C9.47211 12.0627 9.50031 12.0282 9.52201 12C9.50031 11.9718 9.47211 11.9373 9.43571 11.896C9.30624 11.7493 9.1662 11.6144 8.99068 11.4453C8.88229 11.3409 8.76038 11.2234 8.61907 11.0821C7.98356 10.4466 7.07617 9.43968 7.07617 8V6C6.52389 6 6.07617 5.55228 6.07617 5ZM9.07617 6V8C9.07617 8.56032 9.41878 9.0534 10.0333 9.66789C10.1113 9.74592 10.2018 9.83345 10.2973 9.92578C10.5136 10.135 10.7555 10.3688 10.9354 10.5728C11.1846 10.8552 11.5762 11.3511 11.5762 12C11.5762 12.6489 11.1846 13.1448 10.9354 13.4272C10.7555 13.6312 10.5136 13.865 10.2973 14.0742C10.2018 14.1665 10.1113 14.2541 10.0333 14.3321C9.41878 14.9466 9.07617 15.4397 9.07617 16V18H15.0762V16C15.0762 15.5566 14.9695 15.2724 14.8375 15.0612C14.6942 14.8319 14.4884 14.6354 14.2015 14.4059C14.1506 14.3652 14.0912 14.3192 14.0262 14.269C13.787 14.0842 13.4729 13.8415 13.2373 13.5902C12.8868 13.2163 12.5762 12.7024 12.5762 12C12.5762 11.3174 12.8698 10.7886 13.19 10.3936C13.4465 10.0774 13.7748 9.78505 14.0365 9.55209C14.0786 9.51454 14.1191 9.47853 14.1572 9.44421C14.7887 8.87587 15.0762 8.5177 15.0762 8V6H9.07617Z"/></symbol><symbol id="close" viewBox="0 0 24 24"><path fill-rule="evenodd" clip-rule="evenodd" d="M3.83049 3.79289C4.22102 3.40237 4.85418 3.40237 5.2447 3.79289L12.0376 10.5858L18.8305 3.79289C19.221 3.40237 19.8542 3.40237 20.2447 3.79289C20.6352 4.18342 20.6352 4.81658 20.2447 5.20711L13.4518 12L20.2447 18.7929C20.6352 19.1834 20.6352 19.8166 20.2447 20.2071C19.8542 20.5976 19.221 20.5976 18.8305 20.2071L12.0376 13.4142L5.2447 20.2071C4.85418 20.5976 4.22102 20.5976 3.83049 20.2071C3.43997 19.8166 3.43997 19.1834 3.83049 18.7929L10.6234 12L3.83049 5.20711C3.43997 4.81658 3.43997 4.18342 3.83049 3.79289Z"/></symbol><symbol id="logout" viewBox="0 0 24 24"><path d="M7.99913 3C7.44685 3 6.99913 3.44772 6.99913 4C6.99913 4.55228 7.44685 5 7.99913 5H16.4591C16.8305 5.581 17.161 6.17647 17.4244 6.97559C17.7574 7.98576 17.9991 9.37459 17.9991 11.5C17.9991 13.5806 17.6455 15.0898 17.2471 16.1825C16.9558 16.9816 16.6573 17.5318 16.4002 18H7.99913C7.44685 18 6.99913 18.4477 6.99913 19C6.99913 19.5523 7.44685 20 7.99913 20H17.6172L17.8936 19.4472C17.9377 19.3589 18.0009 19.2441 18.0775 19.1049C18.3421 18.6241 18.7675 17.8513 19.1261 16.8675C19.6028 15.5602 19.9991 13.8194 19.9991 11.5C19.9991 9.22541 19.7408 7.61424 19.3239 6.3494C18.9046 5.07755 18.3408 4.20978 17.8312 3.4453L17.5343 3H7.99913Z"/><path d="M7.78 9.90556C8.12501 9.4743 8.05509 8.84501 7.62383 8.5C7.19256 8.15499 6.56327 8.22491 6.21826 8.65617L3.71851 11.7809L6.21826 14.9056C6.56327 15.3368 7.19256 15.4067 7.62383 15.0617C8.05509 14.7167 8.12501 14.0874 7.78 13.6562L7.07976 12.7809H13.9991C14.5514 12.7809 14.9991 12.3332 14.9991 11.7809C14.9991 11.2286 14.5514 10.7809 13.9991 10.7809H7.07976L7.78 9.90556Z"/></symbol><!--Иконки 33*33. Толстые Навигация и другие большие штуки--><symbol id="nav_profile" viewBox="0 0 21 16"><path fill-rule="evenodd" clip-rule="evenodd" d="M11.4609 11.9591C11.2298 11.9861 10.9946 12 10.7562 12C10.5166 12 10.2803 11.986 10.0481 11.9586C5.8265 12.1503 3.36506 14.0362 2.69538 14.8844C2.38726 15.2747 1.73785 15.3934 1.24487 15.1494C0.751893 14.9055 0.602029 14.3914 0.91014 14.0011C1.69215 13.0106 3.748 11.4252 7.00568 10.6836C5.63431 9.58397 4.75625 7.89453 4.75625 6C4.75625 2.68629 7.44254 0 10.7562 0C14.07 0 16.7562 2.68629 16.7562 6C16.7562 7.8958 15.877 9.58624 14.504 10.6858C17.7561 11.4284 19.8086 13.0116 20.5899 14.0011C20.898 14.3914 20.7481 14.9055 20.2551 15.1494C19.7621 15.3934 19.1127 15.2747 18.8046 14.8844C18.1354 14.0368 15.677 12.153 11.4609 11.9591ZM14.7562 6C14.7562 8.20914 12.9654 10 10.7562 10C8.54711 10 6.75625 8.20914 6.75625 6C6.75625 3.79086 8.54711 2 10.7562 2C12.9654 2 14.7562 3.79086 14.7562 6Z"/></symbol><symbol id="nav_cart" viewBox="0 0 33 33"><path fill-rule="evenodd" clip-rule="evenodd" d="M11.5674 9.63811H10C9.48082 9.63811 9.048 10.0354 9.00366 10.5527L7.50366 28.0527C7.47974 28.3317 7.57393 28.608 7.76332 28.8143C7.95271 29.0207 8.21994 29.1381 8.5 29.1381H25.5C25.7801 29.1381 26.0473 29.0207 26.2367 28.8143C26.4261 28.608 26.5203 28.3317 26.4964 28.0527L24.9964 10.5527C24.952 10.0354 24.5192 9.63811 24 9.63811H22.4326C22.3143 8.72397 22.0262 7.65141 21.4616 6.69304C20.6419 5.30157 19.2181 4.13811 17 4.13811C14.7819 4.13811 13.3581 5.30157 12.5384 6.69304C11.9738 7.65141 11.6857 8.72397 11.5674 9.63811ZM13.589 9.63811H20.411C20.304 9.00708 20.0932 8.31053 19.7384 7.70817C19.2081 6.80797 18.3819 6.13811 17 6.13811C15.6181 6.13811 14.7919 6.80797 14.2616 7.70817C13.9068 8.31053 13.696 9.00708 13.589 9.63811ZM10.918 11.6381L9.58938 27.1381H24.4106L23.0821 11.6381H10.918Z"/></symbol><symbol id="nav_orders" viewBox="0 0 33 33"><path fill-rule="evenodd" clip-rule="evenodd" d="M5.25 7.13811C5.25 6.03354 6.14543 5.13811 7.25 5.13811H26.25C27.3546 5.13811 28.25 6.03354 28.25 7.13811V26.1381C28.25 27.2427 27.3546 28.1381 26.25 28.1381H7.25C6.14543 28.1381 5.25 27.2427 5.25 26.1381V7.13811ZM11.75 7.13811H8.25C7.69772 7.13811 7.25 7.58582 7.25 8.13811V25.1381C7.25 25.6904 7.69771 26.1381 8.25 26.1381H25.25C25.8023 26.1381 26.25 25.6904 26.25 25.1381V8.13811C26.25 7.58582 25.8023 7.13811 25.25 7.13811H21.75V15.1381C21.75 15.5305 21.5205 15.8866 21.1632 16.0487C20.8059 16.2109 20.3868 16.1491 20.0915 15.8907L16.75 12.9669L13.4085 15.8907C13.1132 16.1491 12.6941 16.2109 12.3368 16.0487C11.9795 15.8866 11.75 15.5305 11.75 15.1381V7.13811ZM13.75 7.13811V12.9343L16.0915 10.8855C16.4685 10.5556 17.0315 10.5556 17.4085 10.8855L19.75 12.9343V7.13811H13.75Z"/></symbol><symbol id="nav_favorite" viewBox="0 0 33 33"><path fill-rule="evenodd" clip-rule="evenodd" d="M16.9955 28.9218L26.9701 18.5227C28.2792 17.1528 29 15.3337 29 13.398C29.0053 11.4624 28.2898 9.64328 26.9807 8.27338C25.6716 6.90347 23.9385 6.15474 22.0888 6.15474C20.5871 6.15474 19.1587 6.65194 17.9738 7.57213C17.9626 7.58084 17.9514 7.58959 17.9403 7.59837C17.678 7.80464 17.4278 8.03176 17.1916 8.27892L16.508 8.99438L15.8137 8.26783C15.5812 8.02463 15.3351 7.80065 15.0772 7.59675C15.0604 7.58346 15.0435 7.57025 15.0266 7.55713C13.8413 6.63772 12.4111 6.1381 10.9112 6.1381C9.0668 6.1381 7.32841 6.89238 6.02462 8.25674C4.71552 9.62665 3.99473 11.4458 4.00003 13.3814C4.00003 15.317 4.72612 17.1306 6.03522 18.5005L15.9886 28.9163C16.1264 29.0605 16.3119 29.1381 16.4921 29.1381C16.6722 29.1381 16.8577 29.066 16.9955 28.9218ZM25.5241 17.141L16.4965 26.5529L7.48116 17.1188C6.53226 16.1258 6.00003 14.809 6.00004 13.3814L6.00002 13.3759C5.99611 11.9469 6.52525 10.6277 7.47056 9.63849C8.40734 8.65819 9.62776 8.1381 10.9112 8.1381C11.9582 8.1381 12.959 8.48449 13.8008 9.13744C13.9982 9.2906 14.1878 9.46135 14.3677 9.64959L15.062 10.3761C15.4394 10.771 15.9618 10.9944 16.508 10.9944C17.0541 10.9944 17.5766 10.771 17.9539 10.3761L18.6376 9.66068C18.8165 9.47345 19.0048 9.30379 19.2006 9.1517C20.0399 8.49987 21.038 8.15474 22.0888 8.15474C23.3796 8.15474 24.5941 8.67078 25.5347 9.65513C26.4775 10.6416 27.0039 11.9597 27 13.3926V13.398C27 14.8305 26.4697 16.151 25.5251 17.14L25.5241 17.141Z"/></symbol><symbol id="nav_vitamins" viewBox="0 0 33 33"><path d="M12.6286 10.8166C12.2199 10.6531 12.0724 10.7299 11.9571 10.8452C11.5666 11.2357 10.9334 11.2357 10.5429 10.8452C10.1524 10.4547 10.1524 9.82152 10.5429 9.431C11.4276 8.54627 12.5301 8.62312 13.3714 8.95963C14.1796 9.2829 14.9178 9.89169 15.4571 10.431C15.8476 10.8215 15.8476 11.4547 15.4571 11.8452C15.0666 12.2357 14.4334 12.2357 14.0429 11.8452C13.5822 11.3845 13.0704 10.9933 12.6286 10.8166Z"/><path fill-rule="evenodd" clip-rule="evenodd" d="M7.73646 7.15091C5.16218 9.7252 5.16217 13.8989 7.73646 16.4732L17.4659 26.2026C20.0402 28.7769 24.2139 28.7769 26.7882 26.2026C29.3625 23.6284 29.3625 19.4546 26.7882 16.8803L17.0588 7.15091C14.4845 4.57662 10.3108 4.57662 7.73646 7.15091ZM19.8529 12.7735L15.6446 8.56512C13.8513 6.77188 10.9439 6.77188 9.15068 8.56512C7.35744 10.3584 7.35744 13.2658 9.15067 15.059L13.3986 19.307L19.8529 12.7735ZM21.2672 14.1877L14.8129 20.7212L18.8801 24.7884C20.6733 26.5817 23.5807 26.5817 25.374 24.7884C27.1672 22.9952 27.1672 20.0878 25.374 18.2945L21.2672 14.1877Z"/></symbol><symbol id="nav_prescript" viewBox="0 0 33 33"><path fill-rule="evenodd" clip-rule="evenodd" d="M12.5858 3H24C25.1046 3 26 3.89543 26 5V28C26 29.1046 25.1046 30 24 30H9C7.89543 30 7 29.1046 7 28V8.58579L12.5858 3ZM13.4142 5L9 9.41421V28H24V5H13.4142Z"/><path fill-rule="evenodd" clip-rule="evenodd" d="M14.287 10L11 10V18.5H13V15.7409H13.706L15.2789 18.5H17.581L15.7275 15.2486C16.3319 14.873 17 14.1665 17 13C17 12.0107 16.6608 11.2295 16.0885 10.7021C15.5397 10.1964 14.8583 10 14.287 10ZM14.1926 13.7409H13V12L14.2871 12C14.4287 12 14.6038 12.0537 14.7332 12.1729C14.8392 12.2705 15 12.4893 15 13C15 13.2795 14.8748 13.4331 14.6428 13.5673C14.5193 13.6387 14.3866 13.6877 14.2792 13.7185C14.2452 13.7282 14.2158 13.7356 14.1926 13.7409Z"/><path d="M17 15L18.7647 18.75L17 22.5H19.2104L19.8699 21.0986L20.5294 22.5H22.7398L20.9751 18.75L22.7398 15H20.5294L19.8699 16.4015L19.2104 15H17Z"/></symbol><symbol id="nav_bonus" viewBox="0 0 33 33"><path fill-rule="evenodd" clip-rule="evenodd" d="M21.5763 3.63811C20.4718 3.63811 19.5763 4.53354 19.5763 5.63811V7.01311H18.2013C17.0967 7.01311 16.2013 7.90854 16.2013 9.01311V11.2631C16.2013 12.3677 17.0967 13.2631 18.2013 13.2631H19.5763V14.6381C19.5763 15.7427 20.4718 16.6381 21.5763 16.6381H23.8263C24.9309 16.6381 25.8263 15.7427 25.8263 14.6381V13.2631H27.2013C28.3059 13.2631 29.2013 12.3677 29.2013 11.2631V9.01311C29.2013 7.90854 28.3059 7.01311 27.2013 7.01311H25.8263V5.63811C25.8263 4.53354 24.9309 3.63811 23.8263 3.63811H21.5763ZM23.8263 8.01311V5.63811H21.5763V8.01311C21.5763 8.56539 21.1286 9.01311 20.5763 9.01311H18.2013V11.2631H20.5763C21.1286 11.2631 21.5763 11.7108 21.5763 12.2631V14.6381H23.8263V12.2631C23.8263 11.7108 24.274 11.2631 24.8263 11.2631H27.2013V9.01311H24.8263C24.274 9.01311 23.8263 8.56539 23.8263 8.01311Z"/><path fill-rule="evenodd" clip-rule="evenodd" d="M6.00001 12.8887C3.90205 14.9866 3.90205 18.3881 6.00001 20.4861L13.4397 27.9257C15.5376 30.0237 18.9391 30.0237 21.037 27.9257C23.135 25.8277 23.135 22.4263 21.037 20.3283L13.5974 12.8887C11.4994 10.7907 8.09797 10.7907 6.00001 12.8887ZM19.6228 21.7425L16.6878 18.8075L11.9188 23.5764L14.8539 26.5115C16.1708 27.8284 18.3059 27.8284 19.6228 26.5115C20.9397 25.1946 20.9397 23.0594 19.6228 21.7425ZM10.5046 22.1622L15.2736 17.3933L12.1832 14.3029C10.8663 12.986 8.73113 12.986 7.41422 14.3029C6.09731 15.6198 6.09731 17.7549 7.41422 19.0718L10.5046 22.1622Z"/></symbol><symbol id="nav_prohealth" viewBox="0 0 33 33"><path d="M12.25 13.1381C12.25 12.5858 12.6977 12.1381 13.25 12.1381H17.25C17.8023 12.1381 18.25 12.5858 18.25 13.1381C18.25 13.6904 17.8023 14.1381 17.25 14.1381H13.25C12.6977 14.1381 12.25 13.6904 12.25 13.1381Z"/><path d="M13.25 18.1381C12.6977 18.1381 12.25 18.5858 12.25 19.1381C12.25 19.6904 12.6977 20.1381 13.25 20.1381H17.25C17.8023 20.1381 18.25 19.6904 18.25 19.1381C18.25 18.5858 17.8023 18.1381 17.25 18.1381H13.25Z"/><path fill-rule="evenodd" clip-rule="evenodd" d="M6.33333 6.22145C6.33333 5.66917 6.78104 5.22145 7.33333 5.22145H23.2063C23.7586 5.22145 24.2063 5.66917 24.2063 6.22145V15.6381H28.1667C28.7189 15.6381 29.1667 16.0858 29.1667 16.6381V24.5746C29.1667 25.3696 28.965 26.0324 28.6112 26.5632C28.2615 27.0877 27.8024 27.4249 27.3738 27.6392C26.9491 27.8516 26.5364 27.9528 26.2384 28.0024C26.0871 28.0277 25.9587 28.0407 25.8643 28.0474C25.8169 28.0508 25.7776 28.0526 25.7477 28.0536C25.7327 28.0541 25.72 28.0544 25.7097 28.0546L25.6962 28.0547L25.6909 28.0548L25.6886 28.0548L25.6875 28.0548H25.6855L25.6844 28.0548L12.3333 28.0548C9.01962 28.0548 6.33333 25.3685 6.33333 22.0548V6.22145ZM25.7065 26.0535C25.7111 26.0532 25.7162 26.0529 25.7218 26.0525C25.7631 26.0495 25.8285 26.0432 25.9096 26.0296C26.0767 26.0018 26.2841 25.948 26.4794 25.8503C26.6708 25.7546 26.8317 25.6268 26.9471 25.4538C27.0583 25.287 27.1667 25.0197 27.1667 24.5746V17.6381H24.2063V24.5746C24.2063 25.0197 24.3147 25.287 24.4259 25.4538C24.5413 25.6268 24.7022 25.7546 24.8936 25.8503C25.0889 25.948 25.2964 26.0018 25.4634 26.0296C25.5445 26.0432 25.6099 26.0495 25.6512 26.0525C25.667 26.0536 25.679 26.0542 25.6865 26.0545C25.6914 26.0543 25.6981 26.054 25.7065 26.0535ZM22.2063 24.5746C22.2063 25.1333 22.3059 25.6266 22.4879 26.0548H12.3333C10.1242 26.0548 8.33333 24.2639 8.33333 22.0548V7.22145H22.2063V24.5746Z"/></symbol><symbol id="nav_promo" viewBox="0 0 33 33"><path fill-rule="evenodd" clip-rule="evenodd" d="M20.0598 3.71948C19.9121 3.39896 19.6063 3.18006 19.2553 3.14349C18.9042 3.10693 18.5599 3.25812 18.3493 3.54131C16.0764 6.59725 13.0563 10.6127 7.80502 13.055L5.39768 14.1647C3.893 14.8583 3.23551 16.6404 3.92912 18.1451L6.40034 23.506C7.09842 25.0203 8.89748 25.6748 10.4054 24.963L11.7217 24.3416L14.9708 29.4342C15.5835 30.3945 16.8733 30.6499 17.8057 29.9956L19.5794 28.7509C20.4309 28.1534 20.6822 27.0029 20.1574 26.1048L17.7829 22.0408C21.0684 21.1256 23.98 20.9112 26.4327 21.0767C26.7848 21.1005 27.1234 20.9369 27.3236 20.6462C27.5238 20.3556 27.5559 19.9809 27.4082 19.6604L25.808 16.1892C25.857 16.1752 25.9055 16.1573 25.9532 16.1353C28.3687 15.0218 29.4242 12.1611 28.3107 9.74561C27.1973 7.33015 24.3365 6.27468 21.921 7.38814C21.8734 7.41013 21.8282 7.43539 21.7858 7.46355L20.0598 3.71948ZM22.6131 9.25834L24.9807 14.3944C25.0231 14.3662 25.0683 14.3409 25.116 14.319C26.5283 13.6679 27.1455 11.9952 26.4944 10.5829C25.8434 9.17054 24.1707 8.5534 22.7583 9.20445C22.7106 9.22644 22.6621 9.24435 22.6131 9.25834ZM16.6569 28.3584L13.5785 23.5335C14.3434 23.204 15.0929 22.9125 15.826 22.656L18.4306 27.1138L16.6569 28.3584ZM14.9881 20.8308C18.6794 19.5166 22.0202 19.0241 24.9133 19.0256L18.9448 6.07798C17.0765 8.51799 14.575 11.4386 10.8825 13.6764L14.9881 20.8308ZM8.56274 14.908L8.57708 14.9015L8.64509 14.87L9.1326 14.6453L13.0641 21.4963L9.55168 23.1544C9.04902 23.3916 8.44934 23.1735 8.21664 22.6687L5.74543 17.3078C5.51423 16.8063 5.73339 16.2122 6.23495 15.981L8.56274 14.908Z"/></symbol><symbol id="nav_discount" viewBox="0 0 33 33"><path d="M20.5538 15.1189C20.6621 14.5773 20.3109 14.0505 19.7693 13.9422C19.2278 13.8339 18.7009 14.1851 18.5926 14.7267L16.9849 22.7655C16.8766 23.3071 17.2278 23.8339 17.7693 23.9422C18.3109 24.0505 18.8377 23.6993 18.946 23.1577L20.5538 15.1189Z"/><path d="M16.0981 16.4371C16.5123 17.1546 16.2665 18.072 15.549 18.4862C14.8316 18.9004 13.9142 18.6546 13.5 17.9371C13.0858 17.2197 13.3316 16.3023 14.049 15.8881C14.7665 15.4739 15.6839 15.7197 16.0981 16.4371Z"/><path d="M23.549 21.4862C24.2665 21.072 24.5123 20.1546 24.0981 19.4371C23.6839 18.7197 22.7665 18.4739 22.049 18.8881C21.3316 19.3023 21.0858 20.2197 21.5 20.9371C21.9142 21.6546 22.8316 21.9004 23.549 21.4862Z"/><path fill-rule="evenodd" clip-rule="evenodd" d="M11.9446 5.24134C10.7404 4.96799 9.47406 5.24361 8.49567 5.99543C7.51653 6.74782 6.9285 7.89882 6.90094 9.13155L6.75102 15.8368C6.72973 16.7892 7.04182 17.7181 7.6322 18.467L15.5818 28.5512C16.9964 30.3457 19.6077 30.6639 21.4192 29.2718L28.1378 24.1092C29.9569 22.7113 30.2883 20.1129 28.8676 18.3108L20.9181 8.22658C20.3279 7.47795 19.4963 6.95545 18.5651 6.74408L11.9446 5.24134ZM9.71428 7.58129C10.2185 7.19388 10.8753 7.04949 11.5019 7.19173L18.1224 8.69446C18.6108 8.80532 19.0429 9.07847 19.3474 9.46476L27.297 19.5489C28.0241 20.4713 27.8596 21.8007 26.9192 22.5233L20.2006 27.686C19.2526 28.4145 17.8856 28.2431 17.1524 27.313L9.20285 17.2288C8.89855 16.8428 8.73967 16.3669 8.75052 15.8815L8.90044 9.17626C8.91434 8.55462 9.21085 7.96814 9.71428 7.58129Z"/></symbol><symbol id="nav_help" viewBox="0 0 33 33"><path d="M17 12.1381C17 11.5858 17.4477 11.1381 18 11.1381C18.5523 11.1381 19 11.5858 19 12.1381C19 12.6904 18.5523 13.1381 18 13.1381C17.4477 13.1381 17 12.6904 17 12.1381Z"/><path d="M17 16.1381C17 15.5858 17.4477 15.1381 18 15.1381C18.5523 15.1381 19 15.5858 19 16.1381V21.1381C19 21.6904 18.5523 22.1381 18 22.1381C17.4477 22.1381 17 21.6904 17 21.1381V16.1381Z"/><path fill-rule="evenodd" clip-rule="evenodd" d="M5.92404 27.4854C5.36558 28.1335 5.82606 29.1381 6.68162 29.1381H18.5L18.4868 29.1288L18.5071 29.128C19.4816 29.0891 20.4273 28.9387 21.332 28.6891C26.618 27.2308 30.5 22.3878 30.5 16.6381C30.5 9.73455 24.9036 4.13811 18 4.13811C11.0964 4.13811 5.5 9.73455 5.5 16.6381C5.5 19.6764 6.58396 22.4614 8.38625 24.6277L5.92404 27.4854ZM18.4103 27.1303L18.2055 27.1381H8.86324L11.0068 24.6503L9.92372 23.3486C8.40921 21.5282 7.5 19.192 7.5 16.6381C7.5 10.8391 12.201 6.13811 18 6.13811C23.799 6.13811 28.5 10.8391 28.5 16.6381C28.5 22.2997 24.0184 26.9155 18.4103 27.1303Z"/></symbol><symbol id="nav_delivery" viewBox="0 0 33 33"><path fill-rule="evenodd" clip-rule="evenodd" d="M15.2793 5C14.4206 5 13.6577 5.54812 13.3838 6.36192L12 10.4726V17.4381L8.90982 18H6C4.89543 18 4 18.8954 4 20V25C4 26.1046 4.89543 27 6 27H8.92544L18.6543 28.4593C18.9149 28.4984 19.1805 28.4856 19.4361 28.4217L26.4851 26.6595C27.3754 26.4369 28 25.637 28 24.7192V23.5C28 23.3737 27.9883 23.2502 27.9659 23.1304C28.1866 22.8088 28.3158 22.4195 28.3158 22V10.4726L26.932 6.36192C26.6581 5.54812 25.8952 5 25.0365 5H15.2793ZM8 25V20H6V25H8ZM10 25.1388L18.951 26.4815L26 24.7192V23.5H15.5C14.999 23.5 14.5753 23.1293 14.5088 22.6327C14.4424 22.1362 14.7536 21.6671 15.2369 21.5352L20 20.2362V19.8579L14.5138 19.0139L10 19.8346V25.1388ZM14.156 17.0461L14 17.0745V11.6364H26.3158V21.5248C26.2129 21.5085 26.1075 21.5 26 21.5H21.5501C21.8338 21.152 22 20.7094 22 20.2362V19.8579C22 18.8708 21.2798 18.0313 20.3041 17.8812L14.8179 17.0371C14.5983 17.0034 14.3746 17.0064 14.156 17.0461ZM15.2793 7L25.0365 7L25.924 9.63636H14.3918L15.2793 7Z"/></symbol><symbol id="nav_more" viewBox="0 0 33 33"><path fill-rule="evenodd" clip-rule="evenodd" d="M11.25 16.1381C11.25 17.2427 10.3546 18.1381 9.25 18.1381C8.14543 18.1381 7.25 17.2427 7.25 16.1381C7.25 15.0335 8.14543 14.1381 9.25 14.1381C10.3546 14.1381 11.25 15.0335 11.25 16.1381ZM19.25 16.1381C19.25 17.2427 18.3546 18.1381 17.25 18.1381C16.1454 18.1381 15.25 17.2427 15.25 16.1381C15.25 15.0335 16.1454 14.1381 17.25 14.1381C18.3546 14.1381 19.25 15.0335 19.25 16.1381ZM25.25 18.1381C26.3546 18.1381 27.25 17.2427 27.25 16.1381C27.25 15.0335 26.3546 14.1381 25.25 14.1381C24.1454 14.1381 23.25 15.0335 23.25 16.1381C23.25 17.2427 24.1454 18.1381 25.25 18.1381Z"/></symbol><symbol id="nav_login" viewBox="0 0 33 33"><path d="M12 5.13811C11.4477 5.13811 11 5.58582 11 6.13811C11 6.69039 11.4477 7.13811 12 7.13811H23.4644C24.6268 8.96723 26.5 12.8538 26.5 16.6381C26.5 20.4185 24.6319 24.1659 23.4431 26.1381H12C11.4477 26.1381 11 26.5858 11 27.1381C11 27.6904 11.4477 28.1381 12 28.1381H24.5489L24.8437 27.675C26.0323 25.8072 28.5 21.3365 28.5 16.6381C28.5 11.9493 26.0441 7.31452 24.8192 5.56464L24.5207 5.13811H12Z"/><path d="M14.5692 11.3159C14.1151 11.0016 13.4922 11.1148 13.1778 11.5689C12.8634 12.023 12.9767 12.646 13.4308 12.9603L17.2987 15.6381H5C4.44772 15.6381 4 16.0859 4 16.6381C4 17.1904 4.44772 17.6381 5 17.6381H17.2987L13.4308 20.3159C12.9767 20.6303 12.8634 21.2533 13.1778 21.7073C13.4922 22.1614 14.1151 22.2747 14.5692 21.9603L21.0692 17.4603C21.339 17.2735 21.5 16.9663 21.5 16.6381C21.5 16.31 21.339 16.0027 21.0692 15.8159L14.5692 11.3159Z"/></symbol><symbol id="nav_menu" viewBox="0 0 33 33"><path d="M5.75 11.1381C5.75 10.5858 6.17981 10.1381 6.71 10.1381H28.79C29.3202 10.1381 29.75 10.5858 29.75 11.1381C29.75 11.6904 29.3202 12.1381 28.79 12.1381H6.71C6.17981 12.1381 5.75 11.6904 5.75 11.1381Z"/><path d="M5.75 17.1381C5.75 16.5858 6.17981 16.1381 6.71 16.1381H28.79C29.3202 16.1381 29.75 16.5858 29.75 17.1381C29.75 17.6904 29.3202 18.1381 28.79 18.1381H6.71C6.17981 18.1381 5.75 17.6904 5.75 17.1381Z"/><path d="M12.47 23.1381C12.47 22.5858 12.8998 22.1381 13.43 22.1381H28.79C29.3202 22.1381 29.75 22.5858 29.75 23.1381C29.75 23.6904 29.3202 24.1381 28.79 24.1381H13.43C12.8998 24.1381 12.47 23.6904 12.47 23.1381Z"/></symbol><symbol id="nav_point" viewBox="0 0 33 33"><path fill-rule="evenodd" clip-rule="evenodd" d="M15.2793 5.27625C14.4206 5.27625 13.6577 5.82436 13.3838 6.63817L12 10.7488V17.7144L8.90982 18.2762H6C4.89543 18.2762 4 19.1717 4 20.2762V25.2762C4 26.3808 4.89543 27.2762 6 27.2762H8.92544L18.6543 28.7356C18.9149 28.7747 19.1805 28.7619 19.4361 28.698L26.4851 26.9358C27.3754 26.7132 28 25.9132 28 24.9955V23.7762C28 23.65 27.9883 23.5264 27.9659 23.4067C28.1866 23.0851 28.3158 22.6957 28.3158 22.2762V10.7488L26.932 6.63817C26.6581 5.82436 25.8952 5.27625 25.0365 5.27625H15.2793ZM8 25.2762V20.2762H6V25.2762H8ZM10 25.4151L18.951 26.7577L26 24.9955V23.7762H15.5C14.999 23.7762 14.5753 23.4055 14.5088 22.909C14.4424 22.4124 14.7536 21.9433 15.2369 21.8115L20 20.5124V20.1342L14.5138 19.2901L10 20.1108V25.4151ZM14.156 17.3224L14 17.3508V11.9126H26.3158V21.801C26.2129 21.7847 26.1075 21.7762 26 21.7762H21.5501C21.8338 21.4282 22 20.9857 22 20.5124V20.1342C22 19.147 21.2798 18.3075 20.3041 18.1574L14.8179 17.3134C14.5983 17.2796 14.3746 17.2826 14.156 17.3224ZM15.2793 7.27624L25.0365 7.27625L25.924 9.91261H14.3918L15.2793 7.27624Z"/></symbol><!--Оставил цвет--><symbol id="map_pin" viewBox="0 0 33 33"><circle cx="29.5" cy="7.13811" r="5" fill="#FBEB5D"/><path fill-rule="evenodd" clip-rule="evenodd" d="M17 33.1381C26.1127 33.1381 33.5 25.7508 33.5 16.6381C33.5 15.0655 33.28 13.5443 32.8691 12.1036C31.9087 12.7565 30.7489 13.1381 29.5 13.1381C26.1863 13.1381 23.5 10.4518 23.5 7.13811C23.5 5.30541 24.3217 3.66462 25.6168 2.56406C23.1088 1.02531 20.158 0.138107 17 0.138107C7.8873 0.138107 0.5 7.52541 0.5 16.6381C0.5 25.7508 7.8873 33.1381 17 33.1381Z" fill="#4665D7"/><path fill-rule="evenodd" clip-rule="evenodd" d="M9.3245 17.3265C7.21231 15.2143 7.21231 11.7898 9.3245 9.67761C11.4367 7.56542 14.8612 7.56542 16.9734 9.67761L23.7332 16.4374C25.8454 18.5496 25.8454 21.9741 23.7332 24.0863C21.621 26.1985 18.1965 26.1985 16.0843 24.0863L9.3245 17.3265ZM19.649 15.1816L22.319 17.8516C23.6501 19.1828 23.6501 21.341 22.319 22.6721C20.9879 24.0032 18.8296 24.0032 17.4985 22.6721L14.8285 20.0021L19.649 15.1816ZM18.2347 13.7674L13.4143 18.5879L10.7387 15.9123C9.40757 14.5812 9.40757 12.423 10.7387 11.0918C12.0699 9.76068 14.2281 9.76068 15.5592 11.0918L18.2347 13.7674Z" fill="white"/><path fill-rule="evenodd" clip-rule="evenodd" d="M14.0758 11.197C14.6585 11.4519 15.1946 11.9186 15.7071 12.431C16.0976 12.8215 16.0976 13.4547 15.7071 13.8452C15.3166 14.2357 14.6834 14.2357 14.2929 13.8452C13.8053 13.3577 13.4914 13.1243 13.2742 13.0293C13.1815 12.9887 13.1299 12.9844 13.1036 12.9849C13.0788 12.9853 13.0315 12.9904 12.9472 13.0325C12.4532 13.2795 11.8525 13.0793 11.6055 12.5853C11.3586 12.0913 11.5588 11.4907 12.0528 11.2437C12.7306 10.9048 13.4168 10.9087 14.0758 11.197Z" fill="#1C257B"/></symbol><!--Оставил цвет--><symbol id="mark" viewBox="0 0 33 33"><circle cx="16.75" cy="16.6381" r="16.5" fill="#FBEB5D"/><path fill-rule="evenodd" clip-rule="evenodd" d="M7.25 9.13811C7.25 8.03354 8.14543 7.13811 9.25 7.13811H13.25C14.3546 7.13811 15.25 8.03354 15.25 9.13811V13.1381C15.25 14.2427 14.3546 15.1381 13.25 15.1381H9.25C8.14543 15.1381 7.25 14.2427 7.25 13.1381V9.13811ZM9.25 9.13811H13.25V13.1381H9.25V9.13811Z" fill="black"/><path fill-rule="evenodd" clip-rule="evenodd" d="M17.25 19.1381C17.25 18.0335 18.1454 17.1381 19.25 17.1381H23.25C24.3546 17.1381 25.25 18.0335 25.25 19.1381V23.1381C25.25 24.2427 24.3546 25.1381 23.25 25.1381H19.25C18.1454 25.1381 17.25 24.2427 17.25 23.1381V19.1381ZM19.25 19.1381H23.25V23.1381H19.25V19.1381Z" fill="black"/><path d="M18.75 7.13811C19.3023 7.13811 19.75 7.58582 19.75 8.13811V12.6381H24.25C24.8023 12.6381 25.25 13.0858 25.25 13.6381C25.25 14.1904 24.8023 14.6381 24.25 14.6381H18.75C18.1977 14.6381 17.75 14.1904 17.75 13.6381V8.13811C17.75 7.58582 18.1977 7.13811 18.75 7.13811Z" fill="black"/><path d="M13.25 24.1381C13.25 24.6904 13.6977 25.1381 14.25 25.1381C14.8023 25.1381 15.25 24.6904 15.25 24.1381V18.1381C15.25 17.5858 14.8023 17.1381 14.25 17.1381H8.25C7.69772 17.1381 7.25 17.5858 7.25 18.1381C7.25 18.6904 7.69772 19.1381 8.25 19.1381H13.25V24.1381Z" fill="black"/><path d="M25.25 8.13811C25.25 8.69039 24.8023 9.13811 24.25 9.13811C23.6977 9.13811 23.25 8.69039 23.25 8.13811C23.25 7.58582 23.6977 7.13811 24.25 7.13811C24.8023 7.13811 25.25 7.58582 25.25 8.13811Z" fill="black"/><path d="M8.25 25.1381C8.80228 25.1381 9.25 24.6904 9.25 24.1381C9.25 23.5858 8.80228 23.1381 8.25 23.1381C7.69772 23.1381 7.25 23.5858 7.25 24.1381C7.25 24.6904 7.69772 25.1381 8.25 25.1381Z" fill="black"/></symbol><symbol id="nav_catalogue" viewBox="0 0 33 34"><path fill-rule="evenodd" clip-rule="evenodd" d="M3 7.13811C3 6.58582 3.44772 6.13811 4 6.13811H11.7481C13.5765 6.13811 15.2933 6.91185 16.5 8.22609C17.7067 6.91185 19.4235 6.13811 21.2519 6.13811H29C29.5523 6.13811 30 6.58582 30 7.13811V23.821C30 24.3733 29.5523 24.821 29 24.821H21.5709C20.0435 24.821 18.8779 25.3962 17.7598 26.4248C17.2373 26.9055 16.9526 27.1381 16.5 27.1381C16.0474 27.1381 15.5 26.6381 15.3499 26.4248C14.2317 25.3962 12.9565 24.821 11.4291 24.821H4C3.44772 24.821 3 24.3733 3 23.821V7.13811ZM17.5 23.9223C18.7245 23.2075 20.1274 22.821 21.5709 22.821H28V8.13811H21.2519C19.7268 8.13811 18.3141 8.91837 17.5 10.1945V23.9223ZM15.5 10.1945V23.9223C14.2755 23.2075 12.8726 22.821 11.4291 22.821H5V8.13811H11.7481C13.2732 8.13811 14.6859 8.91837 15.5 10.1945Z"/></symbol><!--Иконки 48*48. Толстые Маленькие иллюстрации--><symbol id="properties_original" viewBox="0 0 48 48"><path fill-rule="evenodd" clip-rule="evenodd" d="M11.9232 33.8416C13.0001 31.4578 14.1628 30.132 15.4852 29L17.1503 29.7597C16.1026 30.6566 14.7334 32.4789 13.7459 34.665C12.9324 36.4657 12.4283 38.4018 12.5084 40.1725L15.4852 39.2188C15.8351 39.1067 16.2183 39.1955 16.4832 39.4501L18.4392 41.3301C19.2708 38.3448 20.7041 34.8673 21.6044 33.0551L23.3956 33.9449C22.356 36.0373 20.5844 40.4452 19.9797 43.4525C19.9077 43.8104 19.6464 44.1006 19.298 44.2097C18.9497 44.3187 18.5695 44.2293 18.3063 43.9763L15.5274 41.3054L11.9701 42.4452C11.6997 42.5318 11.4051 42.4994 11.16 42.356C10.9149 42.2126 10.7423 41.9717 10.6853 41.6935C10.1471 39.065 10.8478 36.2223 11.9232 33.8416Z"/><path fill-rule="evenodd" clip-rule="evenodd" d="M25.9809 39.0786C24.7658 37.0446 23.9116 34.8714 23.5264 33.2282L25.4736 32.7717C25.8078 34.1972 26.5788 36.1797 27.6978 38.0528C28.5949 39.5544 29.6761 40.9191 30.8736 41.8753L32.0833 39.1004C32.2423 38.7358 32.6022 38.5 33 38.5H36.1437C35.5403 37.7319 34.9778 36.8596 34.4862 35.9648C33.5379 34.2387 32.7875 32.308 32.5136 30.6644L34.4864 30.3356C34.7125 31.692 35.3623 33.4058 36.2391 35.0018C37.1213 36.6077 38.1675 37.9743 39.114 38.7108C39.4512 38.9731 39.5845 39.4206 39.4459 39.8246C39.3072 40.2287 38.9272 40.5 38.5 40.5L33.6549 40.5L32.2227 43.7853C32.1086 44.047 31.888 44.2475 31.6166 44.3362C31.3452 44.4249 31.0488 44.3933 30.8021 44.2494C28.8176 43.0918 27.1896 41.1017 25.9809 39.0786Z"/><path fill-rule="evenodd" clip-rule="evenodd" d="M10.5002 26.8993C10.5259 26.9305 10.6131 27.017 10.8525 27.1399C11.2237 27.3305 11.739 27.4973 12.4513 27.6901C12.5968 27.7295 12.7543 27.7709 12.9196 27.8143C13.4772 27.9607 14.1236 28.1304 14.7003 28.3274C15.4483 28.5829 16.3673 28.9725 17.101 29.6647C17.875 30.395 18.2377 31.2861 18.4365 32.0191C18.5953 32.6049 18.6842 33.2426 18.7503 33.7174C18.7628 33.8073 18.7745 33.8912 18.7858 33.9679C18.8619 34.489 18.9262 34.7792 18.9957 34.9594C19.0068 34.9551 19.0186 34.9503 19.0313 34.945C19.3197 34.8245 19.6864 34.5872 20.2474 34.1826C20.3186 34.1313 20.3936 34.0768 20.472 34.0197C20.9337 33.6839 21.512 33.2632 22.0971 32.9301C22.7897 32.5358 23.7204 32.1241 24.8026 32.1241C25.8847 32.1241 26.8154 32.5358 27.508 32.9301C28.0932 33.2632 28.6715 33.6839 29.1332 34.0198C29.2115 34.0768 29.2866 34.1314 29.3577 34.1826C29.9187 34.5872 30.2854 34.8245 30.5738 34.945C30.6085 34.9595 30.6372 34.9702 30.6606 34.9782C30.6792 34.9527 30.7049 34.9127 30.7358 34.8523C30.8643 34.601 30.9762 34.2218 31.1145 33.5958C31.1372 33.4929 31.1611 33.3803 31.1866 33.2605C31.2945 32.7539 31.4299 32.1178 31.6143 31.5423C31.8499 30.8071 32.2369 29.9144 32.9857 29.1855C33.7235 28.4674 34.6255 28.061 35.3789 27.7938C35.9456 27.5928 36.5789 27.423 37.1111 27.2804C37.2701 27.2378 37.42 27.1976 37.5565 27.1597C38.2318 26.9722 38.6898 26.8147 39.0104 26.6365C39.1672 26.5493 39.2475 26.4812 39.2891 26.4348C39.2813 26.4123 39.2706 26.3842 39.2561 26.3499C39.136 26.0663 38.8985 25.7037 38.4909 25.1459C38.4393 25.0753 38.3844 25.0009 38.327 24.923C37.989 24.4645 37.5649 23.8892 37.229 23.307C36.8319 22.6185 36.4137 21.6879 36.4137 20.6029C36.4137 19.3433 37.0179 18.4249 37.5442 17.8185C37.8042 17.5191 38.0837 17.2518 38.3132 17.0368C38.3762 16.9778 38.4351 16.923 38.4908 16.8712C38.6577 16.7158 38.7964 16.5867 38.9362 16.4462C39.3019 16.0786 39.4252 15.8691 39.4712 15.7241C39.4976 15.6412 39.5613 15.4035 39.3344 14.8403C39.3339 14.839 39.3334 14.8375 39.3328 14.8358C39.3187 14.7933 39.254 14.5979 37.9417 14.3288C37.838 14.3075 37.7231 14.285 37.6 14.2608C37.1011 14.163 36.4671 14.0387 35.8904 13.8631C35.1372 13.6338 34.2443 13.2558 33.4898 12.5213C32.7448 11.7961 32.4363 10.8406 32.2729 10.1721C32.128 9.5793 32.0352 8.91793 31.9597 8.37972C31.9465 8.28553 31.9338 8.19511 31.9214 8.10949C31.8269 7.45364 31.7451 7.01278 31.6362 6.70663C31.6297 6.68842 31.6235 6.67185 31.6177 6.65682C31.4741 6.67057 31.1779 6.78558 30.4939 7.23038C30.4073 7.28665 30.3122 7.35052 30.209 7.41988C29.293 8.0351 27.7345 9.08195 25.8108 9.08195C24.7649 9.08195 23.8178 8.64042 23.1505 8.27069C22.5559 7.94128 21.9417 7.5252 21.4207 7.17219C21.3306 7.11118 21.2434 7.05205 21.1595 6.99558C20.5289 6.57122 20.0559 6.27367 19.6699 6.1041C19.5886 6.06837 19.5252 6.04469 19.4778 6.02907C19.3843 6.14149 19.2311 6.46018 19.0432 7.38902C19.0215 7.49624 18.9986 7.6148 18.9741 7.74178C18.8733 8.26428 18.7449 8.92933 18.5594 9.5333C18.3178 10.32 17.9148 11.2507 17.124 12.0205C16.3574 12.7668 15.361 13.0881 14.6281 13.2652C13.9983 13.4174 13.2955 13.5188 12.7088 13.6034C12.5907 13.6204 12.4772 13.6368 12.3701 13.6527C11.649 13.7601 11.1467 13.8566 10.7928 13.987C10.7277 14.0109 10.6786 14.0321 10.6426 14.0494C10.6429 14.1026 10.6534 14.1843 10.6883 14.3091C10.7825 14.6464 10.9921 15.0713 11.3515 15.6989C11.4145 15.809 11.4836 15.9275 11.5565 16.0527C11.8497 16.5562 12.2056 17.1673 12.4867 17.7705C12.8479 18.5455 13.1919 19.515 13.1919 20.6029C13.1919 21.6867 12.8211 22.6396 12.4448 23.3812C12.1414 23.9793 11.7576 24.5788 11.4455 25.0661C11.3791 25.1699 11.316 25.2685 11.2575 25.361C10.8782 25.9612 10.6568 26.3606 10.5515 26.6757C10.509 26.8029 10.5013 26.8728 10.5002 26.8993ZM10.6546 13.9665C10.6567 13.9624 10.6587 13.9583 10.6608 13.9541C10.6605 13.9546 10.6601 13.9553 10.6596 13.9562C10.6584 13.9584 10.6566 13.9617 10.6546 13.9665ZM19.543 5.97366C19.5527 5.97069 19.5628 5.96739 19.5731 5.96374C19.5715 5.9643 19.5695 5.96479 19.5671 5.96538C19.5614 5.96679 19.5533 5.96876 19.543 5.97366ZM19.3671 5.99987C19.3653 5.99972 19.3644 5.99959 19.3644 5.99957L19.3671 5.99987ZM31.7162 6.66721C31.732 6.67662 31.7492 6.68602 31.7678 6.69521C31.7625 6.69257 31.7571 6.68926 31.7513 6.68569C31.7415 6.67964 31.7305 6.67284 31.7162 6.66721ZM39.3327 26.3698C39.3332 26.3684 39.3338 26.367 39.3344 26.3656L39.3338 26.3671C39.3335 26.3679 39.3331 26.3688 39.3327 26.3698ZM39.924 23.7184C39.1799 22.7073 38.4137 21.6662 38.4137 20.6029C38.4137 19.6747 39.1055 19.0311 39.834 18.3533C40.9111 17.3512 42.0685 16.2744 41.1894 14.0928C40.6799 12.8282 39.3281 12.5622 37.9293 12.2869C36.8082 12.0663 35.6569 11.8397 34.8849 11.0882C34.2784 10.4979 34.1111 9.31175 33.9436 8.12408C33.7478 6.73618 33.5518 5.34616 32.6543 4.9024C31.3591 4.26201 30.276 4.97691 29.0977 5.75462C28.1246 6.39687 27.0866 7.08195 25.8108 7.08195C24.8559 7.08195 23.7034 6.30196 22.558 5.52677C21.2245 4.62427 19.9006 3.72826 18.9092 4.07716C17.5544 4.55397 17.2818 5.95999 16.999 7.41934C16.7716 8.5926 16.5375 9.80034 15.7289 10.5874C15.0561 11.2424 13.7561 11.4307 12.4551 11.619C10.9008 11.8442 9.34509 12.0694 8.85646 13.0912C8.25328 14.3525 9.03527 15.6968 9.85275 17.102C10.5108 18.2333 11.1919 19.404 11.1919 20.6029C11.1919 21.7494 10.4754 22.8702 9.78166 23.9552C8.94369 25.266 8.13902 26.5246 8.67087 27.7135C9.20429 28.9059 10.8386 29.3355 12.4649 29.763C13.7329 30.0962 14.9959 30.4282 15.7285 31.1194C16.4624 31.8119 16.6153 32.8995 16.7639 33.9564C16.9408 35.2146 17.1116 36.4291 18.2491 36.8814C19.3387 37.3147 20.482 36.4844 21.6664 35.6244C22.6841 34.8852 23.7322 34.1241 24.8026 34.1241C25.8729 34.1241 26.921 34.8852 27.9388 35.6244C29.1231 36.4844 30.2664 37.3147 31.3561 36.8814C32.561 36.4023 32.8541 35.0301 33.1538 33.6273C33.3962 32.492 33.643 31.3368 34.3808 30.6186C35.1389 29.8807 36.3591 29.5533 37.5694 29.2285C39.1292 28.81 40.6725 28.3959 41.1894 27.1131C41.6256 26.0306 40.7898 24.8949 39.924 23.7184Z"/><path fill-rule="evenodd" clip-rule="evenodd" d="M25 27.8889C29.0808 27.8889 32.3889 24.5808 32.3889 20.5C32.3889 16.4192 29.0808 13.1111 25 13.1111C20.9192 13.1111 17.6111 16.4192 17.6111 20.5C17.6111 24.5808 20.9192 27.8889 25 27.8889ZM25 30C30.2467 30 34.5 25.7467 34.5 20.5C34.5 15.2533 30.2467 11 25 11C19.7533 11 15.5 15.2533 15.5 20.5C15.5 25.7467 19.7533 30 25 30Z"/></symbol><symbol id="properties_goodset" viewBox="0 0 48 48"><path d="M20.6501 10.2177C19.8032 10.6824 19.0892 11.3812 18.6739 11.7965C18.2834 12.187 18.2834 12.8202 18.6739 13.2108C19.0645 13.6013 19.6977 13.6013 20.0882 13.2108C20.5063 12.7927 21.0424 12.2838 21.6123 11.9711C22.176 11.6618 22.5592 11.6514 22.8721 11.8365C23.3474 12.1178 23.9608 11.9604 24.242 11.4851C24.5232 11.0097 24.3659 10.3964 23.8905 10.1152C22.7034 9.41275 21.5032 9.74955 20.6501 10.2177Z"/><path fill-rule="evenodd" clip-rule="evenodd" d="M27.6867 18.8262C30.6209 15.8921 30.6209 11.1348 27.6867 8.20064C24.7525 5.26645 19.9953 5.26646 17.0611 8.20064L8.31063 16.9511C5.37645 19.8853 5.37645 24.6426 8.31063 27.5767C11.2448 30.5109 16.002 30.5109 18.9362 27.5767L27.6867 18.8262ZM13.3777 14.7126L9.72492 18.3654C7.57183 20.5185 7.57183 24.0094 9.72492 26.1625C11.878 28.3155 15.3688 28.3155 17.5219 26.1625L21.1747 22.5097L13.3777 14.7126ZM14.6278 13.4626L18.4754 9.61493C20.6285 7.46184 24.1193 7.46184 26.2724 9.61493C28.4255 11.768 28.4255 15.2589 26.2724 17.412L22.4248 21.2596L14.6278 13.4626Z"/><path fill-rule="evenodd" clip-rule="evenodd" d="M21.0218 30.8894H20.9988V34.8896H21.0218C21.382 38.7988 25.9353 41.89 31.4994 41.89C37.0635 41.89 41.6168 38.7988 41.977 34.8896H42V30.8894H41.977C41.9923 30.7241 42 30.5574 42 30.3893C42 26.247 37.2987 22.8889 31.4994 22.8889C25.7001 22.8889 20.9988 26.247 20.9988 30.3893C20.9988 30.5574 21.0066 30.7241 21.0218 30.8894ZM22.9989 30.3893C22.9989 31.6469 23.7092 32.9741 25.2369 34.0654C26.7608 35.1539 28.9686 35.8897 31.4994 35.8897C32.6801 35.8897 33.7904 35.7295 34.7938 35.4482L25.7323 26.3867C25.5601 26.4915 25.3948 26.6005 25.2369 26.7133C23.7092 27.8045 22.9989 29.1317 22.9989 30.3893ZM37.7619 34.0654C37.4719 34.2725 37.1571 34.4669 36.8201 34.6459L27.6696 25.4954C28.8078 25.1125 30.1045 24.889 31.4994 24.889C34.0303 24.889 36.238 25.6248 37.7619 26.7133C39.2896 27.8045 39.9999 29.1317 39.9999 30.3893C39.9999 31.6469 39.2896 32.9741 37.7619 34.0654ZM23.0266 34.8208C24.9375 36.6816 28.0209 37.8898 31.4994 37.8898C34.9779 37.8898 38.0614 36.6816 39.9722 34.8208C39.8278 35.9459 39.116 37.0984 37.7619 38.0656C36.238 39.1541 34.0303 39.8899 31.4994 39.8899C28.9686 39.8899 26.7608 39.1541 25.2369 38.0656C23.8829 37.0984 23.171 35.9459 23.0266 34.8208Z"/></symbol><symbol id="properties_charity" viewBox="0 0 48 48"><path fill-rule="evenodd" clip-rule="evenodd" d="M32.0385 25.6154L24.8568 32.8495C24.7576 32.9498 24.624 33 24.4943 33C24.3645 33 24.231 32.946 24.1318 32.8457L16.9654 25.6C16.0228 24.647 15.5 23.3853 15.5 22.0388C15.4962 20.6923 16.0152 19.4268 16.9577 18.4738C17.8965 17.5247 19.1481 17 20.4761 17C21.556 17 22.5857 17.3476 23.4391 17.9872C23.5471 18.0681 23.6523 18.1537 23.7544 18.2438C23.8404 18.3199 23.9243 18.3991 24.0058 18.4816L24.5057 18.987L24.998 18.4893C25.079 18.4074 25.1623 18.3286 25.2478 18.2531C25.3493 18.1633 25.4538 18.0781 25.5612 17.9976C26.4142 17.3575 27.4427 17.0116 28.5239 17.0116C29.8557 17.0116 31.1035 17.5324 32.0461 18.4854C32.9886 19.4384 33.5038 20.7039 33.5 22.0504C33.5 23.3969 32.981 24.6624 32.0385 25.6154ZM25.9277 20.3934L26.42 19.8957C26.5287 19.7858 26.6429 19.6863 26.7616 19.5973C27.2689 19.2166 27.8762 19.0116 28.5239 19.0116C29.3197 19.0116 30.056 19.3174 30.6241 19.8918C31.192 20.466 31.5023 21.2226 31.5 22.0447V22.0504C31.5 22.8722 31.1874 23.6312 30.6176 24.2079L30.6165 24.209L24.4982 30.372L18.3873 24.1935C17.8129 23.6128 17.5 22.8557 17.5 22.0388L17.5 22.0332C17.4977 21.2149 17.8091 20.4572 18.3797 19.8802C18.9454 19.3083 19.6861 19 20.4761 19C21.1206 19 21.7301 19.2056 22.2397 19.5876C22.3595 19.6773 22.4746 19.7775 22.5839 19.888L23.0838 20.3934C23.4594 20.7732 23.9715 20.987 24.5057 20.987C25.04 20.987 25.552 20.7732 25.9277 20.3934Z"/><path fill-rule="evenodd" clip-rule="evenodd" d="M24.5 40C33.3366 40 40.5 32.8366 40.5 24C40.5 15.1634 33.3366 8 24.5 8C15.6634 8 8.5 15.1634 8.5 24C8.5 32.8366 15.6634 40 24.5 40ZM24.5 38C32.232 38 38.5 31.732 38.5 24C38.5 16.268 32.232 10 24.5 10C16.768 10 10.5 16.268 10.5 24C10.5 31.732 16.768 38 24.5 38Z"/><path fill-rule="evenodd" clip-rule="evenodd" d="M24.5 44C35.5457 44 44.5 35.0457 44.5 24C44.5 12.9543 35.5457 4 24.5 4C13.4543 4 4.5 12.9543 4.5 24C4.5 35.0457 13.4543 44 24.5 44ZM24.5 42C34.4411 42 42.5 33.9411 42.5 24C42.5 14.0589 34.4411 6 24.5 6C14.5589 6 6.5 14.0589 6.5 24C6.5 33.9411 14.5589 42 24.5 42Z"/></symbol><symbol id="properties_addvits" viewBox="0 0 48 48"><path fill-rule="evenodd" clip-rule="evenodd" d="M31 6C29.8954 6 29 6.89543 29 8V11H26C24.8954 11 24 11.8954 24 13V17C24 18.1046 24.8954 19 26 19H29V22C29 23.1046 29.8954 24 31 24H35C36.1046 24 37 23.1046 37 22V19H40C41.1046 19 42 18.1046 42 17V13C42 11.8954 41.1046 11 40 11H37V8C37 6.89543 36.1046 6 35 6H31ZM26 13H31V8H35V13H40V17H35V22H31V17H26V13Z"/><path d="M15.5344 18.5555C16.846 19.0656 18.0867 20.0505 19.1291 21.0929C19.5196 21.4835 19.5196 22.1166 19.1291 22.5072C18.7385 22.8977 18.1054 22.8977 17.7149 22.5071C16.7572 21.5495 15.7479 20.7845 14.8095 20.4195C13.9089 20.0693 13.1709 20.1133 12.522 20.6C12.0801 20.9314 11.4533 20.8418 11.122 20.4C10.7906 19.9582 10.8801 19.3314 11.322 19C12.6731 17.9867 14.1851 18.0308 15.5344 18.5555Z"/><path fill-rule="evenodd" clip-rule="evenodd" d="M31.1309 28.0399C34.3723 31.2814 34.3723 36.5367 31.1309 39.7781C27.8895 43.0195 22.6341 43.0195 19.3927 39.7781L8.22183 28.6072C4.98042 25.3658 4.98042 20.1105 8.22183 16.869C11.4632 13.6276 16.7186 13.6276 19.96 16.869L31.1309 28.0399ZM24.7489 24.4863L29.7167 29.4542C32.1771 31.9145 32.1771 35.9036 29.7167 38.3639C27.2563 40.8243 23.2673 40.8243 20.8069 38.3639L15.8391 33.3961L24.7489 24.4863ZM23.4762 23.2136L14.5664 32.1234L9.63605 27.193C7.17568 24.7327 7.17568 20.7436 9.63604 18.2833C12.0964 15.8229 16.0854 15.8229 18.5458 18.2833L23.4762 23.2136Z"/></symbol><symbol id="properties_reciep" viewBox="0 0 48 48"><path d="M23.441 27.2013C23.4553 27.4666 23.6746 27.6745 23.9403 27.6745H25.0597C25.3254 27.6745 25.5447 27.4666 25.559 27.2013L25.9631 19.6745L26.0496 17.5201C26.061 17.2363 25.834 17 25.55 17H23.4716C23.1896 17 22.9634 17.2331 22.9719 17.515L23.0369 19.6745L23.441 27.2013Z"/><path d="M23.0637 32.4839C23.4575 32.828 23.9407 33 24.5134 33C25.0861 33 25.5604 32.828 25.9362 32.4839C26.3121 32.1398 26.5 31.7019 26.5 31.1701C26.5 30.6383 26.3121 30.2004 25.9362 29.8563C25.5604 29.5122 25.0861 29.3402 24.5134 29.3402C23.9407 29.3402 23.4575 29.5122 23.0637 29.8563C22.6879 30.2004 22.5 30.6383 22.5 31.1701C22.5 31.7019 22.6879 32.1398 23.0637 32.4839Z"/><path fill-rule="evenodd" clip-rule="evenodd" d="M22.7635 7.03885C23.5313 5.69522 25.4687 5.69522 26.2365 7.03885L42.7901 36.0077C43.552 37.341 42.5893 39 41.0536 39H7.94634C6.4107 39 5.44797 37.341 6.20986 36.0077L22.7635 7.03885ZM24.5 8.03113L41.0536 37L7.94634 37L24.5 8.03113Z"/></symbol><symbol id="properties_onlyreciep" viewBox="0 0 48 48"><path fill-rule="evenodd" clip-rule="evenodd" d="M42 24C42 33.9411 33.9411 42 24 42C14.0589 42 6 33.9411 6 24C6 14.0589 14.0589 6 24 6C33.9411 6 42 14.0589 42 24ZM22.941 26.2013C22.9553 26.4666 23.1746 26.6745 23.4403 26.6745H24.5597C24.8254 26.6745 25.0447 26.4666 25.059 26.2013L25.4631 18.6745L25.5496 16.5201C25.561 16.2363 25.334 16 25.05 16H22.9717C22.6896 16 22.4634 16.2331 22.4719 16.515L22.5369 18.6745L22.941 26.2013ZM22.5638 31.4839C22.9575 31.828 23.4407 32 24.0134 32C24.5861 32 25.0604 31.828 25.4362 31.4839C25.8121 31.1398 26 30.7019 26 30.1701C26 29.6383 25.8121 29.2004 25.4362 28.8563C25.0604 28.5122 24.5861 28.3402 24.0134 28.3402C23.4407 28.3402 22.9575 28.5122 22.5638 28.8563C22.1879 29.2004 22 29.6383 22 30.1701C22 30.7019 22.1879 31.1398 22.5638 31.4839ZM37 24C37 31.1797 31.1797 37 24 37C16.8203 37 11 31.1797 11 24C11 16.8203 16.8203 11 24 11C31.1797 11 37 16.8203 37 24ZM39 24C39 32.2843 32.2843 39 24 39C15.7157 39 9 32.2843 9 24C9 15.7157 15.7157 9 24 9C32.2843 9 39 15.7157 39 24Z"/></symbol><symbol id="blogAuthorsPreview" viewBox="0 0 160 160" fill="none"><circle cx="80" cy="80" r="80" fill="#e6e9fb"/><path d="M86.758 112.488c4.278 3.783 6.505 10.443 7.083 13.3-36.854 19.872-60.865 6.793-68.264-2.231l10.961-9.576c4.194-3.203 6.424-6.148 15.378-8.493l4.584-5.266h14.027c1.92.19 3.168.637 4.416 1.083 1.248.447 6.468 6.455 11.815 11.183z" fill="#1c257b"/><path fill-rule="evenodd" clip-rule="evenodd" d="m32.602 50.837 8.673 5.465c1.016 2.793 3.036 8.506 2.985 9.017-.063.64-8.27 15.011-9.549 14.885a4.397 4.397 0 0 0-.042-.004c-.218-2.713-.272-5.277-.19-7.449-1.378-2.398-1.54-4.029-1.096-8.508-6.209-2.552-2.83-13.847-2.893-13.207-.05.511 1.366 1.427 2.081 1.82-.024-.708-.01-1.382.03-2.02z" fill="#6f75a7"/><path fill-rule="evenodd" clip-rule="evenodd" d="M70.909 96.363 68.54 97.44l-5.857-2.84-6.837-22.32C53.69 70.128 49 65.723 47.49 65.315c-1.51-.408-6.711-4.002-9.123-5.748-1.522-.15-4.77-1.758-6.145-6.913.126.076.244.144.348.201-.11-3.24.57-5.758 1.048-7.326 1.102 1.918 4.343 2.906 5.825 3.16 0 0-.193-1.31-.098-2.27s.573-2.528.573-2.528c1.088.97 4.033 2.983 7.104 3.287 1.653.164 3.098.007 4.744-.17 2.177-.237 4.705-.51 8.531-.132 5.375.532 11.028 2.814 13.183 3.889 3.713 1.66 9.285 7.38 7.179 12.34 3.38 2.401 3.399 8.089 3.146 10.648-.538 5.439-3.252 10.016-4.754 12.129-1.072 1.509-5.664 7.192-8.082 9.86z" fill="#8d92bd"/><path fill-rule="evenodd" clip-rule="evenodd" d="M70.631 99.17c-3.962-.339-7.794-.922-8.872-1.753-1.92-1.483.002-8.722 1.203-12.157l8.374-6.279c3.638-2.542 6.757-12.434 7.604-23.709 1.788 2.343 2.84 5.196 1.72 7.833 3.38 2.402 3.4 8.09 3.146 10.65-.538 5.438-3.252 10.015-4.753 12.127-1.073 1.51-5.665 7.193-8.083 9.861z" fill="#6f75a7"/><path fill-rule="evenodd" clip-rule="evenodd" d="m51.916 105.488-.114.03c.622 3.036 1.727 8.22 2.107 9.212 3.199.317 17.075-6.063 20.077-10.289-.81-.511-2.638-2.07-3.459-4.219l.443-4.479-1.28-.126.887-8.958c1.65-1.452 3.951-5.424.278-9.34-2.338-2.493-6.654-.228-7.643 2.15-1.313-.883-3.862-3.418-3.558-6.489.38-3.839.665-6.718 1.751-7.903-4.436-2.795-6.746-2.68-9.468-2.546-1.383.068-2.872.142-4.801-.158-2.133-.21-6.873-1.067-8.768-2.805-2.285 3.89-3.36 8.108-3.89 13.195-.401 10.624 2.469 30.598 11.742 31.516 1.28.126 4.082-.114 4.926-.805l.513 1.343z" fill="#fff"/><path d="M94.884 79.262c-4.104 1.844-7.665 9.126-8.933 12.537-6.85 14.079 44.483 28.908 41.766 21.788-2.173-5.697-8.43-15.352-11.287-19.468.795-6.704 1.439-12.13 3.755-18.007 5.195 1.315 8.189.634 10.362-1.31 5.432-4.858 3.207-28.482 1.238-30.982 1.376-9.419-4.564-13.382-7.706-14.187-1.482-1.147-4.232-2.532-7.959-3.857-10.934-3.887-21.95 1.28-26.09 4.35-.58-3.305-1.443-4.217-4.146-5.995-2.702-1.777-13.537-3.224-14.863 7.95-1.024 8.634 8.322 10.806 12.386 10.21-.493 4.15-.581 7.376 1.001 13.39 2.32 8.822 8.582 14.076 11.423 15.6z" fill="#fff"/><path fill-rule="evenodd" clip-rule="evenodd" d="m131.841 43.898-.113-.033c-.636-1.91-2.326-6.038-3.993-7.272-1.374 3.398-11.054 11.314-19.035 10.367l-.022.14c-.432 2.707-1.333 8.347.688 10.622l-.287-.222c-2.941-2.281-6.913-5.364-10.134-1.985-1.975 3.003-1.99 10.77 3.988 12.775-.934 1.508-2.826 4.715-2.917 5.481-.053.454-2.132.084-4.424-.477l.239-2.013c-2.841-1.524-9.103-6.778-11.423-15.6-1.582-6.014-1.494-9.24-1.001-13.39-4.064.596-13.41-1.576-12.386-10.21 1.326-11.174 12.16-9.727 14.863-7.95 2.703 1.778 3.566 2.69 4.145 5.996 4.141-3.07 15.157-8.238 26.091-4.351 3.727 1.325 6.477 2.71 7.959 3.857 3.142.805 9.082 4.768 7.705 14.187.019.024.038.05.057.078z" fill="#8d92bd"/><path fill-rule="evenodd" clip-rule="evenodd" d="M124.121 29.644c1.585 2.176 3.145 4.813 3.751 7.057a2.59 2.59 0 0 0-.137-.108c-1.374 3.398-11.054 11.314-19.035 10.367l-.022.14c-.432 2.707-1.333 8.347.688 10.623l-.283-.22-.004-.003c-2.941-2.281-6.913-5.364-10.134-1.985-.433.658-.771 1.544-.973 2.548-6.078-.463-11.707-4.434-14.566-7.106-.492-3.291-.345-5.751 0-8.667-1.068.157-2.503.123-4.018-.17 1.435.277 2.798.323 3.846.193.632-3.089 1.493-5.44 2.903-7.093-7.737-.538-11.823-4.462-13.67-7.86 3.377-5.944 11.181-4.7 13.417-3.228 2.703 1.777 3.566 2.689 4.145 5.995 4.141-3.07 15.157-8.238 26.091-4.351 3.727 1.325 6.477 2.71 7.959 3.857l.042.011z" fill="#6f75a7"/><path fill-rule="evenodd" clip-rule="evenodd" d="M86.051 91.81c1.268-3.41 4.83-10.692 8.933-12.536l.938-7.912c2.554.71 10.642 6.276 14.624 9.162.039 1.623-.268 3.37-.501 4.702-.093.532-.175.998-.218 1.363.639.3 4.339 4.08 6.808 6.659l-.105.883c2.857 4.116 9.114 13.771 11.287 19.468 2.717 7.12-48.616-7.709-41.766-21.788z" fill="#1c257b"/></symbol></svg>